<svg version="1.1" id="Layer_1" xmlns="http://www.w3.org/2000/svg" xmlns:xlink="http://www.w3.org/1999/xlink" x="0px" y="0px"
	 width="100%" viewBox="0 0 760 750" enable-background="new 0 0 760 750" xml:space="preserve">
<path fill="#1B212C" opacity="1.000000" stroke="none" 
	d="
M430.000000,751.000000 
	C286.666656,751.000000 143.833328,751.000000 1.000000,751.000000 
	C1.000000,501.000000 1.000000,251.000000 1.000000,1.000000 
	C254.333328,1.000000 507.666656,1.000000 761.000000,1.000000 
	C761.000000,251.000000 761.000000,501.000000 761.000000,751.000000 
	C650.833313,751.000000 540.666687,751.000000 430.000000,751.000000 
M162.001099,252.915817 
	C162.052826,273.273254 162.104538,293.630676 161.994492,314.915131 
	C162.050140,334.940765 162.105789,354.966431 162.001877,375.918518 
	C162.060791,404.274200 162.119705,432.629913 162.020889,461.913086 
	C161.999649,473.713135 161.948730,485.513184 161.962616,497.313202 
	C162.006836,534.871948 162.075211,572.430725 161.982971,610.917786 
	C161.972412,617.742615 161.786194,624.572937 161.999329,631.390747 
	C162.224884,638.606323 165.452316,644.413635 172.206375,647.201111 
	C176.065506,648.793884 180.529358,649.575623 184.725952,649.594177 
	C222.514252,649.761230 260.303650,649.682800 298.092712,649.652283 
	C299.744843,649.651001 301.396790,649.415039 303.962799,649.474426 
	C324.023193,649.516907 344.083588,649.594177 364.143951,649.582031 
	C370.762787,649.578003 377.381500,649.343018 384.914520,649.431458 
	C400.514404,649.475159 416.114380,649.570435 431.714142,649.543701 
	C441.493683,649.526917 451.272888,649.326843 461.956451,649.434387 
	C497.177216,649.449707 532.397949,649.471191 567.618713,649.458801 
	C569.101013,649.458252 570.583252,649.142090 572.210205,649.130432 
	C572.459229,649.179932 572.628906,649.094727 573.467957,648.827820 
	C580.788025,646.466553 586.162231,642.278076 587.666199,633.356262 
	C587.737671,609.756653 587.854248,586.157043 587.864746,562.557434 
	C587.871765,546.772949 587.728088,530.988464 587.797607,514.377625 
	C587.807739,499.057617 587.847717,483.737518 587.820374,468.417572 
	C587.785583,448.940033 587.696289,429.462555 587.794983,409.062653 
	C587.807983,396.613342 587.852356,384.163971 587.826904,371.714722 
	C587.782898,350.141327 587.695740,328.567963 587.795044,306.207367 
	C587.739807,305.140320 587.684509,304.073242 587.805847,302.110535 
	C587.745056,299.068878 587.684326,296.027222 587.791748,292.063751 
	C587.778320,263.251587 587.719299,234.439301 587.794922,205.627365 
	C587.807983,200.653473 586.227600,196.776260 582.651917,193.200729 
	C553.092712,163.642624 523.567688,134.048447 494.289795,104.212532 
	C488.978729,98.800247 483.411346,96.438705 475.809113,96.466133 
	C405.860535,96.718430 335.910950,96.677048 265.961639,96.734650 
	C264.304443,96.736015 262.647369,96.894028 260.154785,96.767456 
	C258.440338,96.835739 256.725891,96.904022 254.405869,96.776520 
	C252.932159,96.840622 251.458435,96.904732 249.255951,96.759712 
	C248.508316,96.829720 247.760681,96.899719 246.460968,96.774376 
	C245.302628,96.840034 244.144287,96.905685 242.071213,96.759018 
	C225.384216,96.829071 208.697220,96.899117 191.241882,96.771469 
	C187.497650,96.852722 183.753403,96.933975 179.324997,96.867294 
	C178.525513,97.193016 177.726028,97.518738 176.132889,97.911728 
	C168.514313,98.558319 161.985153,105.624672 161.947861,114.391190 
	C161.827896,142.594772 162.040344,170.799789 161.981995,199.931656 
	C162.043442,217.284454 162.104889,234.637238 162.001099,252.915817 
z"/>
<path fill="#2BBEF2" opacity="1.000000" stroke="none" 
	d="
M260.990234,96.978981 
	C262.647369,96.894028 264.304443,96.736015 265.961639,96.734650 
	C335.910950,96.677048 405.860535,96.718430 475.809113,96.466133 
	C483.411346,96.438705 488.978729,98.800247 494.289795,104.212532 
	C523.567688,134.048447 553.092712,163.642624 582.651917,193.200729 
	C586.227600,196.776260 587.807983,200.653473 587.794922,205.627365 
	C587.719299,234.439301 587.778320,263.251587 587.367859,292.417358 
	C586.290283,290.878265 585.541809,289.012146 585.003906,287.087128 
	C584.045532,283.657257 583.214539,280.191864 582.330322,276.741333 
	C581.601990,276.800873 580.873718,276.860443 580.145386,276.919983 
	C579.431824,280.714111 578.198486,284.494659 578.099121,288.304779 
	C577.759521,301.322021 578.031921,314.356720 577.603333,327.369354 
	C577.463928,331.604034 575.891052,335.791504 574.876465,339.540619 
	C574.779236,295.668884 574.779236,252.257141 574.779236,208.602570 
	C572.562927,208.488876 571.100647,208.347198 569.638550,208.348907 
	C548.819580,208.373123 528.000488,208.395172 507.181610,208.462189 
	C489.041931,208.520584 477.946136,197.565872 477.884521,179.302750 
	C477.812561,157.984161 477.851898,136.665207 477.843109,115.346405 
	C477.842377,113.561050 477.842987,111.775696 477.842987,109.792145 
	C475.970367,109.708000 474.663605,109.597122 473.356934,109.598076 
	C415.063416,109.640808 356.769928,109.700531 298.476410,109.733070 
	C292.986603,109.736130 287.496704,109.575386 282.112244,109.171005 
	C284.750183,107.906548 287.321747,107.051659 289.798767,105.978584 
	C291.013733,105.452255 292.053284,104.521049 293.172241,103.773071 
	C292.099945,102.883530 291.137939,101.442062 289.935883,101.201851 
	C285.229919,100.261436 280.450867,99.681015 275.693756,99.003754 
	C270.795776,98.306427 265.891663,97.652107 260.990234,96.978981 
M495.242340,124.160431 
	C494.069855,123.124268 492.897369,122.088104 491.188324,120.577744 
	C491.049469,121.959549 490.934998,122.564331 490.935760,123.168976 
	C490.960724,142.797806 490.902344,162.427460 491.076965,182.055023 
	C491.148438,190.088562 496.674438,195.244232 504.865021,195.262375 
	C520.667358,195.297379 536.469971,195.212448 552.272461,195.181274 
	C556.355896,195.173203 560.439331,195.180069 566.094727,195.180069 
	C541.909729,170.935577 518.832764,147.801804 495.242340,124.160431 
M581.423889,272.393402 
	C581.884949,272.093811 582.346008,271.794220 582.807007,271.494598 
	C582.462341,271.094849 582.117737,270.695099 581.773071,270.295349 
	C581.597778,270.848724 581.422485,271.402130 581.423889,272.393402 
z"/>
<path fill="#1E88CA" opacity="1.000000" stroke="none" 
	d="
M162.134216,609.989441 
	C162.075211,572.430725 162.006836,534.871948 161.962616,497.313202 
	C161.948730,485.513184 161.999649,473.713135 162.459473,461.391998 
	C163.896210,459.755280 165.692017,458.684937 165.758438,457.516327 
	C166.099396,451.516174 169.445831,449.601898 174.955536,450.451721 
	C175.003769,472.283905 174.967773,493.653046 174.764160,515.357422 
	C174.706360,518.121277 174.816193,520.549866 174.993729,523.444336 
	C175.011261,558.604431 174.961090,593.298706 174.569580,628.057617 
	C172.450867,630.107361 170.673477,632.092407 168.129303,634.933777 
	C167.312439,632.836853 166.308670,631.253479 166.114868,629.576538 
	C165.531876,624.531921 165.448212,619.425964 164.764816,614.398926 
	C164.552719,612.838684 163.047455,611.454346 162.134216,609.989441 
z"/>
<path fill="#1C83BF" opacity="1.000000" stroke="none" 
	d="
M162.058594,610.453613 
	C163.047455,611.454346 164.552719,612.838684 164.764816,614.398926 
	C165.448212,619.425964 165.531876,624.531921 166.114868,629.576538 
	C166.308670,631.253479 167.312439,632.836853 168.129303,634.933777 
	C170.673477,632.092407 172.450867,630.107361 174.650360,628.448120 
	C175.712097,634.982300 176.961823,636.169739 183.214874,636.165344 
	C219.333878,636.139771 255.452896,636.076782 291.571899,636.056702 
	C297.058533,636.053711 302.545197,636.208984 308.104706,636.610840 
	C309.544830,638.234436 310.912109,639.538208 312.786224,641.325256 
	C311.027466,642.770813 309.443878,644.077576 307.854462,645.377319 
	C306.255615,646.684692 304.650940,647.984985 303.048828,649.288391 
	C301.396790,649.415039 299.744843,649.651001 298.092712,649.652283 
	C260.303650,649.682800 222.514252,649.761230 184.725952,649.594177 
	C180.529358,649.575623 176.065506,648.793884 172.206375,647.201111 
	C165.452316,644.413635 162.224884,638.606323 161.999329,631.390747 
	C161.786194,624.572937 161.972412,617.742615 162.058594,610.453613 
z"/>
<path fill="#23A3DF" opacity="1.000000" stroke="none" 
	d="
M572.065491,648.972961 
	C570.583252,649.142090 569.101013,649.458252 567.618713,649.458801 
	C532.397949,649.471191 497.177216,649.449707 461.559631,649.015747 
	C461.613434,647.746521 461.969543,646.827148 462.530273,646.056702 
	C465.770142,641.605530 465.621674,641.219727 460.532074,638.887146 
	C459.511841,638.419617 458.840790,637.190125 458.471649,636.236450 
	C487.359833,636.134705 515.785095,636.104065 544.210327,636.085327 
	C552.189392,636.080017 560.169006,636.058716 568.147339,636.143616 
	C572.743958,636.192505 574.898926,634.019165 574.815186,629.467041 
	C574.793945,628.310425 574.930969,627.150879 575.321777,626.101685 
	C579.050110,629.549805 581.057190,634.946045 587.292908,634.104919 
	C586.162231,642.278076 580.788025,646.466553 572.925232,648.841797 
	C572.382507,648.855835 572.065491,648.972961 572.065491,648.972961 
z"/>
<path fill="#2BA5DC" opacity="1.000000" stroke="none" 
	d="
M587.479553,633.730591 
	C581.057190,634.946045 579.050110,629.549805 575.231323,625.702393 
	C574.778076,602.920044 574.703369,580.645996 574.720459,558.371948 
	C574.730286,545.581299 574.889160,532.790771 575.283875,519.831360 
	C576.913147,516.683044 578.129211,513.646729 579.619019,510.751343 
	C580.232666,509.558807 581.434937,508.669159 582.369446,507.641724 
	C583.197327,508.738495 584.060852,509.810486 584.844055,510.938293 
	C585.814697,512.336060 586.718872,513.780029 587.651794,515.203979 
	C587.728088,530.988464 587.871765,546.772949 587.864746,562.557434 
	C587.854248,586.157043 587.737671,609.756653 587.479553,633.730591 
z"/>
<path fill="#2DB9EF" opacity="1.000000" stroke="none" 
	d="
M574.973755,340.000580 
	C575.891052,335.791504 577.463928,331.604034 577.603333,327.369354 
	C578.031921,314.356720 577.759521,301.322021 578.099121,288.304779 
	C578.198486,284.494659 579.431824,280.714111 580.145386,276.919983 
	C580.873718,276.860443 581.601990,276.800873 582.330322,276.741333 
	C583.214539,280.191864 584.045532,283.657257 585.003906,287.087128 
	C585.541809,289.012146 586.290283,290.878265 587.283752,292.878235 
	C587.684326,296.027222 587.745056,299.068878 587.420288,302.633240 
	C584.053406,304.925598 584.953003,306.096863 587.626587,306.994598 
	C587.695740,328.567963 587.782898,350.141327 587.826904,371.714722 
	C587.852356,384.163971 587.807983,396.613342 587.379272,409.422607 
	C586.300232,408.732422 585.202942,407.740723 585.052063,406.621429 
	C584.522583,402.694427 584.400330,398.714325 583.954102,394.773529 
	C583.759521,393.055389 583.154236,391.383698 582.735535,389.690918 
	C582.236816,389.711914 581.738037,389.732880 581.239258,389.753876 
	C580.835754,390.897919 580.186035,392.017334 580.068726,393.190033 
	C579.311768,400.757538 578.883301,408.364227 577.902832,415.900299 
	C577.413269,419.663513 575.984436,423.304535 574.886597,426.540222 
	C574.771423,415.462189 574.709167,404.844604 574.737671,394.227295 
	C574.786316,376.151642 574.892029,358.076141 574.973755,340.000580 
z"/>
<path fill="#2DB3EB" opacity="1.000000" stroke="none" 
	d="
M574.980408,427.000824 
	C575.984436,423.304535 577.413269,419.663513 577.902832,415.900299 
	C578.883301,408.364227 579.311768,400.757538 580.068726,393.190033 
	C580.186035,392.017334 580.835754,390.897919 581.239258,389.753876 
	C581.738037,389.732880 582.236816,389.711914 582.735535,389.690918 
	C583.154236,391.383698 583.759521,393.055389 583.954102,394.773529 
	C584.400330,398.714325 584.522583,402.694427 585.052063,406.621429 
	C585.202942,407.740723 586.300232,408.732422 587.296997,409.883820 
	C587.696289,429.462555 587.785583,448.940033 587.820374,468.417572 
	C587.847717,483.737518 587.807739,499.057617 587.724731,514.790771 
	C586.718872,513.780029 585.814697,512.336060 584.844055,510.938293 
	C584.060852,509.810486 583.197327,508.738495 582.369446,507.641724 
	C581.434937,508.669159 580.232666,509.558807 579.619019,510.751343 
	C578.129211,513.646729 576.913147,516.683044 575.204224,519.368652 
	C574.793823,504.306061 574.723022,489.537354 574.750000,474.768829 
	C574.779053,458.846069 574.899719,442.923492 574.980408,427.000824 
z"/>
<path fill="#2CB8EC" opacity="1.000000" stroke="none" 
	d="
M260.572510,96.873215 
	C265.891663,97.652107 270.795776,98.306427 275.693756,99.003754 
	C280.450867,99.681015 285.229919,100.261436 289.935883,101.201851 
	C291.137939,101.442062 292.099945,102.883530 293.172241,103.773071 
	C292.053284,104.521049 291.013733,105.452255 289.798767,105.978584 
	C287.321747,107.051659 284.750183,107.906548 281.652527,109.271347 
	C269.967194,109.704803 258.846802,109.753433 247.726624,109.724243 
	C225.490051,109.665878 203.253571,109.564888 181.058609,109.164787 
	C180.553452,107.098610 180.091461,105.316719 179.437729,103.608208 
	C178.689560,101.652931 177.771042,99.762856 176.926544,97.844452 
	C177.726028,97.518738 178.525513,97.193016 180.027679,97.121262 
	C184.490311,97.239868 188.250275,97.104515 192.010223,96.969162 
	C208.697220,96.899117 225.384216,96.829071 242.796661,97.026535 
	C244.685760,97.185944 245.849396,97.077835 247.013046,96.969727 
	C247.760681,96.899719 248.508316,96.829720 249.912292,97.034294 
	C252.049576,97.196686 253.530518,97.084496 255.011444,96.972305 
	C256.725891,96.904022 258.440338,96.835739 260.572510,96.873215 
z"/>
<path fill="#29A4D8" opacity="1.000000" stroke="none" 
	d="
M176.529724,97.878090 
	C177.771042,99.762856 178.689560,101.652931 179.437729,103.608208 
	C180.091461,105.316719 180.553452,107.098610 180.676880,109.285767 
	C175.673523,110.229530 174.967850,113.239052 174.976913,117.196800 
	C175.030975,140.799072 174.937637,164.401688 174.561676,187.930313 
	C172.730927,186.158264 171.232285,184.460098 169.306702,182.278168 
	C168.706223,183.991974 168.412750,185.058975 167.968155,186.058746 
	C166.044388,190.384628 164.076447,194.690857 162.124588,199.004242 
	C162.040344,170.799789 161.827896,142.594772 161.947861,114.391190 
	C161.985153,105.624672 168.514313,98.558319 176.529724,97.878090 
z"/>
<path fill="#2390D1" opacity="1.000000" stroke="none" 
	d="
M174.871277,449.988617 
	C169.445831,449.601898 166.099396,451.516174 165.758438,457.516327 
	C165.692017,458.684937 163.896210,459.755280 162.538330,460.928253 
	C162.119705,432.629913 162.060791,404.274200 162.440765,375.355835 
	C163.584396,373.094238 164.677155,371.447235 164.912659,369.685577 
	C165.394669,366.079865 165.203568,362.381378 165.731461,358.785950 
	C165.944901,357.332306 167.314651,356.048492 168.158203,354.687378 
	C169.432083,355.534088 170.698181,356.392822 171.982422,357.223450 
	C172.923080,357.831818 173.887589,358.403320 174.926178,359.453949 
	C174.964371,389.940613 174.917831,419.964630 174.871277,449.988617 
z"/>
<path fill="#1D92D2" opacity="1.000000" stroke="none" 
	d="
M303.505798,649.381409 
	C304.650940,647.984985 306.255615,646.684692 307.854462,645.377319 
	C309.443878,644.077576 311.027466,642.770813 312.786224,641.325256 
	C310.912109,639.538208 309.544830,638.234436 308.567932,636.550781 
	C333.975159,636.216370 358.992065,636.261719 384.085510,636.628479 
	C388.782593,642.274597 388.779663,642.272461 384.325165,648.291809 
	C384.139923,648.542114 384.105133,648.903809 384.000275,649.213623 
	C377.381500,649.343018 370.762787,649.578003 364.143951,649.582031 
	C344.083588,649.594177 324.023193,649.516907 303.505798,649.381409 
z"/>
<path fill="#209BD8" opacity="1.000000" stroke="none" 
	d="
M384.457397,649.322510 
	C384.105133,648.903809 384.139923,648.542114 384.325165,648.291809 
	C388.779663,642.272461 388.782593,642.274597 384.548615,636.554199 
	C409.292999,636.209717 433.650848,636.260803 458.008728,636.311951 
	C458.840790,637.190125 459.511841,638.419617 460.532074,638.887146 
	C465.621674,641.219727 465.770142,641.605530 462.530273,646.056702 
	C461.969543,646.827148 461.613434,647.746521 461.107544,648.903076 
	C451.272888,649.326843 441.493683,649.526917 431.714142,649.543701 
	C416.114380,649.570435 400.514404,649.475159 384.457397,649.322510 
z"/>
<path fill="#29A0DB" opacity="1.000000" stroke="none" 
	d="
M162.156250,313.988129 
	C162.104538,293.630676 162.052826,273.273254 162.426834,252.366745 
	C163.896973,249.401184 164.996887,247.006805 165.969986,244.561935 
	C166.922302,242.169357 167.745361,239.725342 168.692490,237.118591 
	C171.376144,238.843246 173.119827,239.963806 174.950821,241.496506 
	C174.971909,263.268738 174.905670,284.628845 174.508728,305.929962 
	C166.855743,301.494141 166.915756,301.522308 164.884644,310.539154 
	C164.594254,311.828247 163.095673,312.845215 162.156250,313.988129 
M168.942383,298.781891 
	C169.001480,298.784912 169.060593,298.787933 168.942383,298.781891 
z"/>
<path fill="#2697D6" opacity="1.000000" stroke="none" 
	d="
M162.075378,314.451630 
	C163.095673,312.845215 164.594254,311.828247 164.884644,310.539154 
	C166.915756,301.522308 166.855743,301.494141 174.594238,306.392761 
	C174.954132,324.273438 174.897797,341.632355 174.841461,358.991272 
	C173.887589,358.403320 172.923080,357.831818 171.982422,357.223450 
	C170.698181,356.392822 169.432083,355.534088 168.158203,354.687378 
	C167.314651,356.048492 165.944901,357.332306 165.731461,358.785950 
	C165.203568,362.381378 165.394669,366.079865 164.912659,369.685577 
	C164.677155,371.447235 163.584396,373.094238 162.520538,374.892609 
	C162.105789,354.966431 162.050140,334.940765 162.075378,314.451630 
z"/>
<path fill="#2AA8DF" opacity="1.000000" stroke="none" 
	d="
M174.863495,241.084381 
	C173.119827,239.963806 171.376144,238.843246 168.692490,237.118591 
	C167.745361,239.725342 166.922302,242.169357 165.969986,244.561935 
	C164.996887,247.006805 163.896973,249.401184 162.509445,251.903854 
	C162.104889,234.637238 162.043442,217.284454 162.053284,199.467957 
	C164.076447,194.690857 166.044388,190.384628 167.968155,186.058746 
	C168.412750,185.058975 168.706223,183.991974 169.306702,182.278168 
	C171.232285,184.460098 172.730927,186.158264 174.638031,188.393311 
	C174.985489,206.314926 174.924500,223.699646 174.863495,241.084381 
z"/>
<path fill="#2BBEF2" opacity="1.000000" stroke="none" 
	d="
M191.626053,96.870316 
	C188.250275,97.104515 184.490311,97.239868 180.369766,97.195236 
	C183.753403,96.933975 187.497650,96.852722 191.626053,96.870316 
z"/>
<path fill="#2BBEF2" opacity="1.000000" stroke="none" 
	d="
M587.710815,306.600983 
	C584.953003,306.096863 584.053406,304.925598 587.331970,303.081055 
	C587.684509,304.073242 587.739807,305.140320 587.710815,306.600983 
z"/>
<path fill="#2BBEF2" opacity="1.000000" stroke="none" 
	d="
M254.708649,96.874413 
	C253.530518,97.084496 252.049576,97.196686 250.276688,97.138855 
	C251.458435,96.904732 252.932159,96.840622 254.708649,96.874413 
z"/>
<path fill="#2BBEF2" opacity="1.000000" stroke="none" 
	d="
M246.737000,96.872047 
	C245.849396,97.077835 244.685760,97.185944 243.254028,97.132690 
	C244.144287,96.905685 245.302628,96.840034 246.737000,96.872047 
z"/>
<path fill="#1C83BF" opacity="1.000000" stroke="none" 
	d="
M572.137817,649.051697 
	C572.065491,648.972961 572.382507,648.855835 572.550903,648.865295 
	C572.628906,649.094727 572.459229,649.179932 572.137817,649.051697 
z"/>
<path fill="#1B212C" opacity="1.000000" stroke="none" 
	d="
M174.950821,241.496506 
	C174.924500,223.699646 174.985489,206.314926 174.970123,188.467194 
	C174.937637,164.401688 175.030975,140.799072 174.976913,117.196800 
	C174.967850,113.239052 175.673523,110.229530 180.635345,109.602478 
	C203.253571,109.564888 225.490051,109.665878 247.726624,109.724243 
	C258.846802,109.753433 269.967194,109.704803 281.547180,109.591034 
	C287.496704,109.575386 292.986603,109.736130 298.476410,109.733070 
	C356.769928,109.700531 415.063416,109.640808 473.356934,109.598076 
	C474.663605,109.597122 475.970367,109.708000 477.842987,109.792145 
	C477.842987,111.775696 477.842377,113.561050 477.843109,115.346405 
	C477.851898,136.665207 477.812561,157.984161 477.884521,179.302750 
	C477.946136,197.565872 489.041931,208.520584 507.181610,208.462189 
	C528.000488,208.395172 548.819580,208.373123 569.638550,208.348907 
	C571.100647,208.347198 572.562927,208.488876 574.779236,208.602570 
	C574.779236,252.257141 574.779236,295.668884 574.876465,339.540619 
	C574.892029,358.076141 574.786316,376.151642 574.737671,394.227295 
	C574.709167,404.844604 574.771423,415.462189 574.886597,426.540222 
	C574.899719,442.923492 574.779053,458.846069 574.750000,474.768829 
	C574.723022,489.537354 574.793823,504.306061 574.901245,519.537476 
	C574.889160,532.790771 574.730286,545.581299 574.720459,558.371948 
	C574.703369,580.645996 574.778076,602.920044 574.904785,625.593384 
	C574.930969,627.150879 574.793945,628.310425 574.815186,629.467041 
	C574.898926,634.019165 572.743958,636.192505 568.147339,636.143616 
	C560.169006,636.058716 552.189392,636.080017 544.210327,636.085327 
	C515.785095,636.104065 487.359833,636.134705 458.471649,636.236450 
	C433.650848,636.260803 409.292999,636.209717 384.472046,636.232910 
	C358.992065,636.261719 333.975159,636.216370 308.495056,636.231018 
	C302.545197,636.208984 297.058533,636.053711 291.571899,636.056702 
	C255.452896,636.076782 219.333878,636.139771 183.214874,636.165344 
	C176.961823,636.169739 175.712097,634.982300 174.991699,628.383423 
	C174.961090,593.298706 175.011261,558.604431 175.078873,523.091248 
	C175.041458,519.855591 174.986603,517.438843 174.931763,515.022156 
	C174.967773,493.653046 175.003769,472.283905 174.955521,450.451721 
	C174.917831,419.964630 174.964371,389.940613 174.926178,359.453949 
	C174.897797,341.632355 174.954132,324.273438 174.924942,306.451721 
	C174.905670,284.628845 174.971909,263.268738 174.950821,241.496506 
M372.081238,394.915131 
	C356.278961,394.917877 340.476532,394.881622 324.674500,394.947174 
	C319.939545,394.966827 316.830536,397.746735 317.153351,401.685883 
	C317.516327,406.115417 320.322510,408.008667 324.600586,407.991699 
	C337.403839,407.940918 350.207092,407.889618 363.936157,407.985809 
	C389.217773,408.002991 414.499390,408.029633 439.781006,408.033447 
	C453.253479,408.035492 466.726715,408.070984 480.198059,407.937683 
	C484.700104,407.893158 487.450623,405.122009 487.148743,401.219910 
	C486.829987,397.099762 484.446289,394.898285 480.274719,394.903687 
	C444.518555,394.950073 408.762390,395.020569 372.081238,394.915131 
M407.499725,314.402313 
	C420.487610,314.405701 433.475494,314.423737 446.463348,314.408020 
	C457.619476,314.394501 468.777374,314.451691 479.930908,314.263641 
	C485.944855,314.162262 489.494629,308.883484 486.171326,304.655853 
	C484.572357,302.621857 480.880066,301.257751 478.130280,301.248749 
	C427.511780,301.082703 376.892456,301.162781 326.273315,301.223541 
	C324.633148,301.225494 322.405945,300.974640 321.477966,301.885986 
	C319.648895,303.682190 317.281952,306.337494 317.487640,308.403503 
	C317.693665,310.472412 320.570923,312.525909 322.668365,314.046936 
	C323.670197,314.773407 325.577209,314.287537 327.074310,314.289948 
	C353.549438,314.332306 380.024567,314.365234 407.499725,314.402313 
M465.498779,441.779877 
	C419.556763,441.813965 373.614777,441.846680 327.672760,441.887726 
	C326.009888,441.889221 323.890167,441.345398 322.781067,442.152283 
	C320.598145,443.740204 317.946106,445.846558 317.368103,448.200134 
	C316.536774,451.585022 319.013550,454.131714 322.600342,454.845673 
	C324.047119,455.133667 325.585358,454.993896 327.082031,454.994659 
	C359.707458,455.011780 392.332916,455.029633 424.958344,455.028809 
	C443.102020,455.028351 461.245941,455.036926 479.389282,454.948273 
	C484.476685,454.923401 487.139618,452.519653 487.101654,448.454865 
	C487.063782,444.399658 484.265381,441.894104 479.481018,441.804504 
	C475.154633,441.723480 470.825592,441.783661 465.498779,441.779877 
M375.500000,347.907288 
	C359.017578,347.943481 342.535095,347.964844 326.052765,348.024017 
	C320.343231,348.044495 317.237030,350.333771 317.126129,354.471375 
	C317.014557,358.635834 320.150665,361.036804 325.793427,361.106567 
	C325.959869,361.108612 326.126404,361.107819 326.292877,361.107788 
	C376.572479,361.090881 426.852081,361.075684 477.131683,361.049347 
	C478.793365,361.048462 480.515137,361.192444 482.104095,360.820862 
	C485.406464,360.048645 487.843567,357.677460 486.944397,354.416931 
	C486.276123,351.993652 483.859222,349.854614 481.783203,348.110168 
	C480.890991,347.360474 478.889679,347.904938 477.392273,347.904816 
	C443.761505,347.902161 410.130768,347.905579 375.500000,347.907288 
M276.872650,425.500000 
	C276.874603,391.366302 276.878998,357.232574 276.875885,323.098877 
	C276.875427,318.103790 276.968323,313.103943 276.782166,308.115082 
	C276.612823,303.576721 273.943085,300.828857 270.181610,300.884583 
	C266.428864,300.940155 263.829346,303.736084 263.826019,308.305359 
	C263.791992,354.760345 263.824677,401.215332 263.842987,447.670349 
	C263.844696,451.958099 265.741150,454.737061 270.232697,455.001221 
	C274.363556,455.244171 276.795288,452.450806 276.850250,447.479492 
	C276.927490,440.487091 276.872498,433.493225 276.872650,425.500000 
z"/>
<path fill="#1A222D" opacity="1.000000" stroke="none" 
	d="
M495.499023,124.414230 
	C518.832764,147.801804 541.909729,170.935577 566.094727,195.180069 
	C560.439331,195.180069 556.355896,195.173203 552.272461,195.181274 
	C536.469971,195.212448 520.667358,195.297379 504.865021,195.262375 
	C496.674438,195.244232 491.148438,190.088562 491.076965,182.055023 
	C490.902344,162.427460 490.960724,142.797806 490.935760,123.168976 
	C490.934998,122.564331 491.049469,121.959549 491.188324,120.577744 
	C492.897369,122.088104 494.069855,123.124268 495.499023,124.414230 
z"/>
<path fill="#2DB9EF" opacity="1.000000" stroke="none" 
	d="
M581.335571,272.174438 
	C581.422485,271.402130 581.597778,270.848724 581.773071,270.295349 
	C582.117737,270.695099 582.462341,271.094849 582.807007,271.494629 
	C582.346008,271.794220 581.884949,272.093811 581.335571,272.174438 
z"/>
<path fill="#1C83BF" opacity="1.000000" stroke="none" 
	d="
M174.764145,515.357422 
	C174.986603,517.438843 175.041458,519.855591 175.011169,522.625366 
	C174.816193,520.549866 174.706360,518.121277 174.764145,515.357422 
z"/>
<path fill="#2697D6" opacity="1.000000" stroke="none" 
	d="
M169.031036,298.786438 
	C169.060593,298.787933 169.001480,298.784912 169.031036,298.786438 
z"/>
<path fill="#2AB3E8" opacity="1.000000" stroke="none" 
	d="
M406.999695,314.401276 
	C380.024567,314.365234 353.549438,314.332306 327.074310,314.289948 
	C325.577209,314.287537 323.670197,314.773407 322.668365,314.046936 
	C320.570923,312.525909 317.693665,310.472412 317.487640,308.403503 
	C317.281952,306.337494 319.648895,303.682190 321.477966,301.885986 
	C322.405945,300.974640 324.633148,301.225494 326.273315,301.223541 
	C376.892456,301.162781 427.511780,301.082703 478.130280,301.248749 
	C480.880066,301.257751 484.572357,302.621857 486.171326,304.655853 
	C489.494629,308.883484 485.944855,314.162262 479.930908,314.263641 
	C468.777374,314.451691 457.619476,314.394501 446.463348,314.408020 
	C433.475494,314.423737 420.487610,314.405701 406.999695,314.401276 
z"/>
<path fill="#2CABE0" opacity="1.000000" stroke="none" 
	d="
M465.998260,441.780701 
	C470.825592,441.783661 475.154633,441.723480 479.481018,441.804504 
	C484.265381,441.894104 487.063782,444.399658 487.101654,448.454865 
	C487.139618,452.519653 484.476685,454.923401 479.389282,454.948273 
	C461.245941,455.036926 443.102020,455.028351 424.958344,455.028809 
	C392.332916,455.029633 359.707458,455.011780 327.082031,454.994659 
	C325.585358,454.993896 324.047119,455.133667 322.600342,454.845673 
	C319.013550,454.131714 316.536774,451.585022 317.368103,448.200134 
	C317.946106,445.846558 320.598145,443.740204 322.781067,442.152283 
	C323.890167,441.345398 326.009888,441.889221 327.672760,441.887726 
	C373.614777,441.846680 419.556763,441.813965 465.998260,441.780701 
z"/>
<path fill="#2BB2E7" opacity="1.000000" stroke="none" 
	d="
M376.000000,347.907532 
	C410.130768,347.905579 443.761505,347.902161 477.392273,347.904816 
	C478.889679,347.904938 480.890991,347.360474 481.783203,348.110168 
	C483.859222,349.854614 486.276123,351.993652 486.944397,354.416931 
	C487.843567,357.677460 485.406464,360.048645 482.104095,360.820862 
	C480.515137,361.192444 478.793365,361.048462 477.131683,361.049347 
	C426.852081,361.075684 376.572479,361.090881 326.292877,361.107788 
	C326.126404,361.107819 325.959869,361.108612 325.793427,361.106567 
	C320.150665,361.036804 317.014557,358.635834 317.126129,354.471375 
	C317.237030,350.333771 320.343231,348.044495 326.052765,348.024017 
	C342.535095,347.964844 359.017578,347.943481 376.000000,347.907532 
z"/>
<path fill="#29A0DB" opacity="1.000000" stroke="none" 
	d="
M276.873352,426.000000 
	C276.872498,433.493225 276.927490,440.487091 276.850250,447.479492 
	C276.795288,452.450806 274.363556,455.244171 270.232697,455.001221 
	C265.741150,454.737061 263.844696,451.958099 263.842987,447.670349 
	C263.824677,401.215332 263.791992,354.760345 263.826019,308.305359 
	C263.829346,303.736084 266.428864,300.940155 270.181610,300.884583 
	C273.943085,300.828857 276.612823,303.576721 276.782166,308.115082 
	C276.968323,313.103943 276.875427,318.103790 276.875885,323.098877 
	C276.878998,357.232574 276.874603,391.366302 276.873352,426.000000 
z"/>
<path fill="#2CB1E6" opacity="1.000000" stroke="none" 
	d="
M373.006226,395.083862 
	C408.762390,395.020569 444.518555,394.950073 480.274719,394.903687 
	C484.446289,394.898285 486.829987,397.099762 487.148743,401.219910 
	C487.450623,405.122009 484.700104,407.893158 480.198059,407.937683 
	C466.726715,408.070984 453.253479,408.035492 439.781006,408.033447 
	C414.499390,408.029633 389.217773,408.002991 363.556641,407.567566 
	C363.816650,406.464630 364.440430,405.202179 365.098145,405.184235 
	C371.902740,404.998566 374.720276,401.858856 373.006226,395.083862 
z"/>
<path fill="#2AA8DF" opacity="1.000000" stroke="none" 
	d="
M372.543732,394.999512 
	C374.720276,401.858856 371.902740,404.998566 365.098145,405.184235 
	C364.440430,405.202179 363.816650,406.464630 363.093750,407.493958 
	C350.207092,407.889618 337.403839,407.940918 324.600586,407.991699 
	C320.322510,408.008667 317.516327,406.115417 317.153351,401.685883 
	C316.830536,397.746735 319.939545,394.966827 324.674500,394.947174 
	C340.476532,394.881622 356.278961,394.917877 372.543732,394.999512 
z"/>
</svg>