<svg version="1.1" id="Layer_1" xmlns="http://www.w3.org/2000/svg" xmlns:xlink="http://www.w3.org/1999/xlink" x="0px" y="0px"
	 width="100%" viewBox="0 0 578 578" enable-background="new 0 0 578 578" xml:space="preserve">
<path fill="#1B2029" opacity="1.000000" stroke="none" 
	d="
M579.000000,200.000000 
	C579.000000,326.666656 579.000000,452.833344 579.000000,579.000000 
	C386.333344,579.000000 193.666672,579.000000 1.000000,579.000000 
	C1.000000,386.333344 1.000000,193.666672 1.000000,1.000000 
	C193.666672,1.000000 386.333344,1.000000 579.000000,1.000000 
	C579.000000,67.166664 579.000000,133.333328 579.000000,200.000000 
M498.096405,149.213562 
	C494.558624,144.397385 491.020844,139.581207 487.142242,134.155304 
	C479.253998,125.724747 471.365723,117.294182 463.087219,108.268188 
	C460.357727,105.931435 457.702454,103.500641 454.884094,101.276497 
	C447.951813,95.805817 440.944550,90.430168 433.578156,84.472862 
	C428.700317,81.467361 424.010742,78.086128 418.907990,75.529602 
	C405.700348,68.912514 392.310608,62.659000 378.314880,55.923309 
	C370.912720,53.894932 363.510559,51.866554 356.078979,49.909088 
	C356.078979,49.909088 356.151428,49.883915 355.817963,49.223919 
	C354.742401,48.810791 353.695435,48.286533 352.586975,48.001083 
	C333.786835,43.159538 314.663025,40.740688 295.263062,40.481018 
	C268.543243,40.123367 242.463089,44.077812 216.266464,52.222172 
	C192.577515,59.919838 170.233963,70.336342 149.337738,85.189835 
	C140.832367,92.009682 132.327011,98.829529 123.207542,105.940315 
	C119.728172,109.265907 116.248795,112.591492 112.189636,116.222420 
	C105.410851,124.366684 98.632065,132.510956 91.282845,141.047165 
	C85.107162,150.591187 78.931488,160.135208 72.241264,170.142395 
	C60.413189,191.489349 51.393879,213.894440 46.325279,238.557312 
	C44.479149,254.040878 42.633018,269.524445 40.528397,285.903259 
	C41.026154,296.601471 41.523911,307.299713 41.945244,318.873779 
	C44.970516,333.581543 47.995789,348.289276 51.039440,363.772278 
	C55.727970,375.838379 60.416504,387.904480 65.223953,400.677704 
	C72.321495,412.736633 79.419037,424.795593 86.779327,437.433502 
	C91.481750,443.371826 96.184174,449.310120 101.171570,455.839813 
	C106.363121,461.270203 111.554680,466.700562 117.095474,472.710480 
	C126.052872,480.138733 135.010269,487.566986 144.370651,495.532196 
	C157.178207,503.152588 169.985748,510.773010 183.307404,518.823792 
	C188.873215,521.191895 194.439041,523.559998 200.604630,526.339722 
	C231.787155,538.785583 264.221313,544.116821 297.712799,543.344116 
	C320.275787,542.823608 342.453186,539.806702 364.737762,532.767212 
	C382.994141,527.093933 400.694336,520.148926 417.637024,509.765686 
	C424.460022,505.243134 431.282990,500.720612 438.763123,495.979523 
	C448.185913,488.006104 457.608704,480.032715 467.632416,471.763763 
	C477.804382,459.650574 487.976318,447.537354 498.688446,434.980957 
	C500.273743,432.663483 502.069702,430.460846 503.406738,428.008057 
	C508.446838,418.762024 513.337769,409.434631 518.820801,399.712982 
	C523.566345,387.153717 528.311890,374.594452 533.456177,361.425842 
	C536.239929,346.949738 539.023682,332.473663 542.000854,317.246796 
	C542.367676,309.503662 542.734497,301.760498 543.279968,293.099457 
	C542.859253,287.175140 542.631165,281.229462 541.977417,275.330963 
	C540.628357,263.158386 539.052307,251.010941 537.506287,238.148346 
	C536.708435,234.913086 536.099243,231.616486 535.071777,228.455872 
	C533.165039,222.590881 531.014099,216.805283 529.167358,210.419586 
	C524.452942,199.280914 519.738525,188.142227 514.901306,176.300613 
	C509.342682,167.507202 503.784058,158.713791 498.096405,149.213562 
z"/>
<path fill="#616CBE" opacity="1.000000" stroke="none" 
	d="
M42.021671,317.997925 
	C41.523911,307.299713 41.026154,296.601471 40.955833,285.377747 
	C43.010296,282.902069 44.791168,281.057434 46.221844,278.972534 
	C47.704491,276.811920 49.102325,275.904083 51.312954,277.995026 
	C52.130878,278.768677 53.133167,279.347382 54.123344,280.437927 
	C53.762199,283.991180 54.878273,285.232147 58.269005,285.219879 
	C88.050575,285.112122 117.832855,285.195770 147.614349,285.078186 
	C149.073135,285.072418 150.526627,283.723083 152.416473,282.996521 
	C156.885147,282.661865 160.919968,282.330109 165.032837,282.416382 
	C166.612305,283.597015 168.110062,285.016205 169.615616,285.024536 
	C196.182358,285.171539 222.750031,285.146454 249.317505,285.158813 
	C259.778473,285.163696 270.239716,285.128601 280.700165,285.204742 
	C283.087158,285.222076 285.068054,285.071869 285.445679,282.000336 
	C286.904846,281.996674 287.966064,281.993622 289.353729,281.949219 
	C290.776947,281.275543 291.873718,280.643219 293.282288,280.084045 
	C294.398895,280.440155 295.203735,280.723145 296.070068,281.323730 
	C297.023590,282.432770 297.915558,283.224182 299.093811,284.352173 
	C305.246368,284.931915 311.112732,285.175018 317.147339,285.680908 
	C320.973328,291.696777 326.471710,293.497559 332.970062,293.562469 
	C335.317169,293.585938 337.083069,294.045624 337.412598,290.723236 
	C337.724152,287.581848 339.392059,288.145966 341.482880,289.769592 
	C344.350342,291.996307 347.548340,293.796600 350.598999,295.788330 
	C352.172272,296.815491 353.733154,297.861542 354.847595,298.966980 
	C336.029816,299.034851 317.664093,299.034851 298.758179,299.034851 
	C298.758179,305.051117 298.758179,310.024780 298.356506,314.999634 
	C295.796173,315.616394 293.656464,316.312744 291.473450,316.824371 
	C289.365997,317.318298 287.213898,317.621582 285.010742,317.544373 
	C284.931244,312.758881 284.684479,308.421082 284.983826,304.121338 
	C285.256012,300.212189 283.969604,299.016846 279.978973,299.031647 
	C243.246475,299.168060 206.513260,299.096161 169.780243,299.109344 
	C168.370346,299.109833 166.960541,299.358032 165.500427,299.495575 
	C165.382263,302.002380 165.288940,303.982208 164.832718,306.054077 
	C160.354172,307.433777 156.238525,308.721497 152.036346,309.564026 
	C151.905289,308.290100 151.849365,307.461731 151.818054,306.632477 
	C151.496628,298.121887 152.359818,299.106049 144.248230,299.103485 
	C116.023575,299.094635 87.798897,299.133270 59.574249,299.168549 
	C57.956741,299.170563 56.339394,299.303101 54.229595,299.396698 
	C54.452572,303.832489 54.657707,307.913300 54.449806,311.995911 
	C50.389122,311.700684 47.339508,312.556671 45.195736,315.894531 
	C44.567970,316.872009 43.102959,317.311737 42.021671,317.997925 
M298.091736,291.856293 
	C298.091736,291.856293 297.888092,292.128448 297.888092,292.128448 
	C297.888092,292.128448 298.181152,291.960052 298.091736,291.856293 
z"/>
<path fill="#33ACE4" opacity="1.000000" stroke="none" 
	d="
M356.108398,49.838177 
	C363.510559,51.866554 370.912720,53.894932 378.444763,56.343597 
	C377.678955,57.053162 376.774506,57.617287 375.888824,57.589283 
	C366.872620,57.304195 366.708588,57.471943 368.853729,65.891327 
	C368.934113,66.206863 368.949646,66.538940 368.621490,66.843460 
	C363.157349,65.171417 358.067047,63.519218 352.701416,61.727737 
	C352.047424,61.428940 351.668823,61.269424 350.920654,61.216560 
	C346.753571,60.547501 342.955994,59.771786 337.795898,58.717751 
	C343.510620,63.667244 348.150421,67.685760 352.353455,71.731552 
	C348.210815,70.847198 344.504883,69.935562 339.881836,68.798317 
	C341.028290,73.165085 341.966614,76.739166 342.595032,80.162285 
	C329.674683,69.020439 316.435913,59.156761 298.705963,55.449200 
	C298.705963,62.398998 298.705963,68.699219 298.387146,74.918533 
	C297.622437,74.635742 297.076111,74.537308 296.745758,74.216484 
	C291.694946,69.311699 291.705841,69.309685 286.301880,74.271530 
	C285.949463,74.595108 285.454254,74.763107 284.945404,74.540833 
	C284.865356,68.057594 284.865356,62.036999 284.865356,55.334927 
	C281.846802,56.231567 279.790558,56.728973 277.814850,57.447807 
	C265.775116,61.828362 254.960617,68.310661 245.193695,76.160255 
	C245.170471,73.141586 245.170471,70.569168 245.170471,67.597641 
	C241.022552,68.359871 237.210846,69.060318 233.597687,69.473114 
	C237.489853,65.970367 241.183472,62.755276 244.877106,59.540184 
	C244.707367,59.265366 244.537628,58.990543 244.367889,58.715721 
	C238.975830,60.020126 233.583786,61.324532 228.203049,62.227058 
	C229.691223,59.012402 231.168076,56.199627 233.325760,52.090164 
	C226.931564,54.354576 221.748047,57.002354 217.008713,52.193905 
	C242.463089,44.077812 268.543243,40.123367 295.263062,40.481018 
	C314.663025,40.740688 333.786835,43.159538 352.586975,48.001083 
	C353.695435,48.286533 354.742401,48.810791 355.698669,49.749752 
	C353.611633,54.412495 353.908478,55.016315 357.888092,54.844547 
	C357.291016,53.164967 356.699707,51.501572 356.108398,49.838177 
z"/>
<path fill="#973FAC" opacity="1.000000" stroke="none" 
	d="
M363.991608,532.806824 
	C342.453186,539.806702 320.275787,542.823608 297.712799,543.344116 
	C264.221313,544.116821 231.787155,538.785583 200.471588,525.854126 
	C203.613174,522.055237 206.887802,518.741821 210.536774,515.520874 
	C214.270370,516.807434 217.629639,518.001587 220.990112,519.605225 
	C220.788422,522.763062 220.585526,525.511353 220.384094,528.239685 
	C222.590881,528.648376 224.873795,529.776855 226.699722,529.267456 
	C230.969223,528.076233 236.667328,530.102905 239.466766,524.353394 
	C241.247177,524.707092 242.672150,525.033203 244.097137,525.359314 
	C244.150436,525.061401 244.203720,524.763489 244.257019,524.465515 
	C241.605240,522.057434 238.953445,519.649292 236.795929,517.203979 
	C246.039413,515.338074 253.998199,517.273010 261.372253,522.147339 
	C262.471649,522.874084 263.701416,523.646545 264.955750,523.836060 
	C266.630615,524.089111 268.388428,523.792786 270.478638,523.808716 
	C275.261047,525.396301 279.675385,526.907654 285.054626,528.749329 
	C285.054626,522.599121 285.054626,517.803040 285.469299,513.001953 
	C290.177307,513.337463 294.470703,513.677979 298.833069,514.477722 
	C298.902039,519.195679 298.902039,523.454346 298.902039,529.547729 
	C307.738007,525.580994 315.227051,522.218933 323.117828,519.009094 
	C330.288361,519.544617 337.057129,519.927979 343.609070,520.585205 
	C342.104736,521.900391 340.817291,522.941711 339.529877,523.982971 
	C339.674194,524.260620 339.818542,524.538208 339.962891,524.815796 
	C342.973511,524.281982 345.984161,523.748230 349.076782,523.536621 
	C351.275085,525.621033 353.216461,527.677612 355.554230,529.067261 
	C358.179932,530.627991 361.163635,531.586365 363.991608,532.806824 
z"/>
<path fill="#5A72BD" opacity="1.000000" stroke="none" 
	d="
M543.101318,294.017365 
	C542.734497,301.760498 542.367676,309.503662 541.568604,317.564026 
	C540.525452,317.630432 539.598572,317.551910 539.353271,317.101868 
	C537.251526,313.246582 534.531067,313.191772 531.195435,315.456177 
	C530.567322,315.882599 529.589966,315.794434 528.739746,315.479370 
	C528.952515,309.920776 529.199280,304.826538 529.464905,299.342010 
	C527.210327,299.234528 525.591064,299.090698 523.971863,299.090057 
	C496.195496,299.079071 468.419159,299.085449 440.642792,299.088806 
	C432.486389,299.089783 432.486389,299.090881 431.469940,306.971954 
	C427.000610,306.286896 422.899567,305.622925 418.716370,304.551575 
	C418.496826,302.564331 418.359467,300.984528 418.177979,298.897064 
	C411.813354,298.897064 405.910675,298.897064 399.927063,298.554016 
	C396.488800,293.839081 394.033051,294.029602 390.664307,298.959534 
	C389.893494,298.980469 389.451385,298.939667 388.951904,298.554260 
	C385.683746,293.824005 382.206726,289.983612 376.387115,288.871216 
	C374.055054,288.425446 371.982666,286.621155 370.206116,285.360840 
	C385.074188,285.248749 399.528992,285.120941 413.981720,285.242523 
	C417.222504,285.269775 419.128143,284.596832 419.266418,280.921234 
	C423.528931,278.370697 427.640564,278.800659 431.887634,280.421204 
	C431.576385,284.371857 433.213013,285.267120 436.608734,285.249512 
	C467.546783,285.089294 498.485718,285.097351 529.735229,285.206940 
	C535.898804,285.981262 539.542480,289.935364 543.101318,294.017365 
z"/>
<path fill="#7757B0" opacity="1.000000" stroke="none" 
	d="
M498.148254,435.424133 
	C487.976318,447.537354 477.804382,459.650574 467.078918,471.679199 
	C462.920135,469.202057 459.314880,466.809479 455.879913,464.149719 
	C459.000610,461.483368 461.950989,459.084198 464.901367,456.685028 
	C464.707825,455.900757 464.514282,455.116486 464.320740,454.332214 
	C451.836548,447.992432 439.352356,441.652618 426.964569,434.933716 
	C428.038849,430.449951 429.016724,426.345215 430.343872,422.304810 
	C443.806213,429.084290 456.987366,435.671906 469.981781,442.609406 
	C473.019775,444.231293 474.806244,444.527588 476.927338,441.468262 
	C479.942139,437.119843 483.362122,433.052368 487.073181,428.886047 
	C492.558197,428.663513 497.242340,428.967987 498.148254,435.424133 
z"/>
<path fill="#567DC4" opacity="1.000000" stroke="none" 
	d="
M46.703682,237.930420 
	C51.393879,213.894440 60.413189,191.489349 72.768951,170.048279 
	C74.080078,169.858063 74.993759,169.990784 75.626801,169.630463 
	C81.895798,166.062180 82.780777,166.286148 86.179932,172.909775 
	C75.118950,192.763016 66.419975,213.220718 60.641670,234.835770 
	C58.864964,233.013199 57.376347,231.340714 56.016052,229.812393 
	C52.716560,232.688721 49.710125,235.309570 46.703682,237.930420 
z"/>
<path fill="#37A5DE" opacity="1.000000" stroke="none" 
	d="
M216.637589,52.208038 
	C221.748047,57.002354 226.931564,54.354576 233.325760,52.090164 
	C231.168076,56.199627 229.691223,59.012402 227.895340,62.384666 
	C205.710403,69.375877 185.098846,78.618797 165.634644,90.180412 
	C165.618683,85.253464 169.380127,84.500626 172.474579,83.177284 
	C174.592941,82.271362 177.540161,81.835274 176.249268,78.656067 
	C174.846024,75.200172 172.717834,77.437897 170.650345,78.425652 
	C165.750504,80.766563 160.790894,83.020134 155.712036,84.927086 
	C154.033463,85.557335 151.915939,85.018486 149.999115,85.014175 
	C170.233963,70.336342 192.577515,59.919838 216.637589,52.208038 
z"/>
<path fill="#8F45AB" opacity="1.000000" stroke="none" 
	d="
M364.364685,532.786987 
	C361.163635,531.586365 358.179932,530.627991 355.554230,529.067261 
	C353.216461,527.677612 351.275085,525.621033 349.437134,523.392273 
	C368.607330,518.015930 386.590942,510.755005 404.098999,502.283020 
	C406.984772,507.619781 412.244141,508.300201 416.960632,509.925690 
	C400.694336,520.148926 382.994141,527.093933 364.364685,532.786987 
z"/>
<path fill="#37A5DE" opacity="1.000000" stroke="none" 
	d="
M368.995361,66.863312 
	C368.949646,66.538940 368.934113,66.206863 368.853729,65.891327 
	C366.708588,57.471943 366.872620,57.304195 375.888824,57.589283 
	C376.774506,57.617287 377.678955,57.053162 378.784119,56.512100 
	C392.310608,62.659000 405.700348,68.912514 418.907990,75.529602 
	C424.010742,78.086128 428.700317,81.467361 433.434021,84.862831 
	C428.459473,84.550804 423.629059,83.848808 418.798645,83.146812 
	C419.815277,85.756981 421.756409,87.211189 423.027985,89.113045 
	C424.356110,91.099579 425.039825,93.516968 425.694214,95.635345 
	C418.237274,91.060486 411.091309,86.596291 404.272156,81.943161 
	C406.332916,81.260445 408.159973,80.965691 409.772278,80.211647 
	C411.129944,79.576683 413.258392,78.373116 413.228180,77.482933 
	C413.177002,75.974442 412.025696,73.862816 410.726898,73.200180 
	C409.123688,72.382233 406.573944,72.084526 405.006317,72.806480 
	C401.616974,74.367348 400.540924,77.407265 401.627228,80.999763 
	C390.512573,76.246315 379.753967,71.554810 368.995361,66.863312 
z"/>
<path fill="#439ED7" opacity="1.000000" stroke="none" 
	d="
M463.477448,108.863632 
	C471.365723,117.294182 479.253998,125.724747 486.948303,134.611389 
	C483.163574,136.083740 480.606079,137.734573 481.298157,142.210800 
	C481.422577,143.015640 479.719482,144.103027 478.571838,144.891113 
	C476.904755,143.165100 475.525970,141.607941 474.153900,140.058395 
	C469.602112,142.486954 465.299133,144.782730 461.040710,146.706360 
	C461.179688,145.846848 461.254944,145.354828 461.372009,144.872971 
	C461.854553,142.887360 462.349731,140.904831 462.840271,138.921173 
	C460.285187,138.880600 457.729889,138.800171 455.175018,138.811081 
	C452.780518,138.821304 450.386475,138.928192 448.222900,138.739578 
	C453.697723,135.468994 458.941864,132.451370 464.186005,129.433731 
	C464.583923,128.785995 464.981873,128.138260 465.379791,127.490524 
	C461.793304,124.579445 458.206818,121.668373 454.638763,118.333038 
	C453.513733,109.192223 453.513733,109.192352 462.489105,108.907631 
	C462.818695,108.897179 463.148010,108.878487 463.477448,108.863632 
z"/>
<path fill="#567DC4" opacity="1.000000" stroke="none" 
	d="
M543.190674,293.558411 
	C539.542480,289.935364 535.898804,285.981262 529.736206,284.734497 
	C527.691772,269.740875 525.957153,255.370361 524.540527,240.918091 
	C528.381409,235.598160 532.704590,235.488892 537.569580,238.853149 
	C539.052307,251.010941 540.628357,263.158386 541.977417,275.330963 
	C542.631165,281.229462 542.859253,287.175140 543.190674,293.558411 
z"/>
<path fill="#5C73C1" opacity="1.000000" stroke="none" 
	d="
M46.514484,238.243866 
	C49.710125,235.309570 52.716560,232.688721 56.016052,229.812393 
	C57.376347,231.340714 58.864964,233.013199 60.648567,235.244278 
	C58.646156,250.540237 56.348766,265.277618 54.051373,280.014984 
	C53.133167,279.347382 52.130878,278.768677 51.312954,277.995026 
	C49.102325,275.904083 47.704491,276.811920 46.221844,278.972534 
	C44.791168,281.057434 43.010296,282.902069 41.085079,284.930115 
	C42.633018,269.524445 44.479149,254.040878 46.514484,238.243866 
z"/>
<path fill="#6967BB" opacity="1.000000" stroke="none" 
	d="
M41.983459,318.435852 
	C43.102959,317.311737 44.567970,316.872009 45.195736,315.894531 
	C47.339508,312.556671 50.389122,311.700684 54.551315,312.401245 
	C57.785042,327.716827 60.504223,342.628876 62.936226,357.748291 
	C58.773052,359.636108 54.897060,361.316589 51.021065,362.997070 
	C47.995789,348.289276 44.970516,333.581543 41.983459,318.435852 
z"/>
<path fill="#4B93D0" opacity="1.000000" stroke="none" 
	d="
M91.853271,140.655212 
	C98.632065,132.510956 105.410851,124.366684 112.909302,116.086029 
	C121.112862,116.435974 122.627075,117.482010 123.989685,123.486366 
	C122.632645,125.474640 121.343567,127.130478 119.316956,129.733673 
	C128.167938,134.571121 136.700821,139.234711 144.961792,144.108276 
	C141.609467,146.719849 139.241516,144.795456 136.654678,143.181961 
	C133.328934,141.107544 129.967590,138.931000 126.331223,137.580078 
	C124.476372,136.890991 121.987213,137.909317 119.689384,138.166565 
	C121.065033,141.858292 122.029160,144.445663 122.646622,146.964951 
	C118.151871,144.612244 114.003799,142.327606 109.686394,139.949707 
	C107.776703,142.051270 105.913391,144.101791 103.827560,145.880280 
	C101.606499,141.984818 98.995949,140.072891 94.640060,141.924301 
	C94.005562,142.194000 92.796478,141.111832 91.853271,140.655212 
z"/>
<path fill="#8F45AB" opacity="1.000000" stroke="none" 
	d="
M182.793289,518.393433 
	C169.985748,510.773010 157.178207,503.152588 144.575058,495.260468 
	C149.241348,492.826080 153.703217,490.663391 158.487701,488.656982 
	C171.206268,495.917236 183.602234,503.021210 195.809067,510.395844 
	C191.960434,513.339600 189.178329,517.515991 183.906631,517.453979 
	C183.539246,517.449646 183.164566,518.065796 182.793289,518.393433 
z"/>
<path fill="#606EB9" opacity="1.000000" stroke="none" 
	d="
M528.773743,315.943726 
	C529.589966,315.794434 530.567322,315.882599 531.195435,315.456177 
	C534.531067,313.191772 537.251526,313.246582 539.353271,317.101868 
	C539.598572,317.551910 540.525452,317.630432 541.471863,317.939392 
	C539.023682,332.473663 536.239929,346.949738 532.979553,361.530884 
	C530.080444,357.651978 527.207397,355.400787 522.613159,358.809357 
	C522.064819,359.216156 521.020203,358.953918 520.230225,358.618408 
	C523.094482,344.137939 525.934143,330.040833 528.773743,315.943726 
z"/>
<path fill="#6866B6" opacity="1.000000" stroke="none" 
	d="
M520.205627,359.001831 
	C521.020203,358.953918 522.064819,359.216156 522.613159,358.809357 
	C527.207397,355.400787 530.080444,357.651978 532.780151,361.835541 
	C528.311890,374.594452 523.566345,387.153717 518.243713,399.757874 
	C514.978516,395.858948 511.794128,394.293274 507.447968,397.499908 
	C506.847656,397.942810 505.861237,397.862396 505.119324,397.667145 
	C510.191956,384.540649 515.198792,371.771240 520.205627,359.001831 
z"/>
<path fill="#715EBB" opacity="1.000000" stroke="none" 
	d="
M51.030254,363.384674 
	C54.897060,361.316589 58.773052,359.636108 63.145695,358.068024 
	C68.529831,371.097809 73.417320,384.015198 77.936111,396.861328 
	C74.179817,395.426788 71.030693,394.639191 68.643501,398.687286 
	C68.151985,399.520752 66.319458,399.563416 65.105034,399.970581 
	C60.416504,387.904480 55.727970,375.838379 51.030254,363.384674 
z"/>
<path fill="#7756B5" opacity="1.000000" stroke="none" 
	d="
M65.164490,400.324158 
	C66.319458,399.563416 68.151985,399.520752 68.643501,398.687286 
	C71.030693,394.639191 74.179817,395.426788 78.167969,397.098297 
	C84.524269,407.237946 90.280006,417.069275 95.824936,427.167786 
	C92.581604,430.574829 89.549088,433.714661 86.516571,436.854523 
	C79.419037,424.795593 72.321495,412.736633 65.164490,400.324158 
z"/>
<path fill="#3BA3DB" opacity="1.000000" stroke="none" 
	d="
M463.282349,108.565918 
	C463.148010,108.878487 462.818695,108.897179 462.489105,108.907631 
	C453.513733,109.192352 453.513733,109.192223 454.341003,118.151550 
	C444.684967,110.844879 435.345093,103.295448 426.005249,95.746010 
	C425.039825,93.516968 424.356110,91.099579 423.027985,89.113045 
	C421.756409,87.211189 419.815277,85.756981 418.798645,83.146812 
	C423.629059,83.848808 428.459473,84.550804 433.628662,85.134552 
	C440.944550,90.430168 447.951813,95.805817 454.884094,101.276497 
	C457.702454,103.500641 460.357727,105.931435 463.282349,108.565918 
z"/>
<path fill="#874DB1" opacity="1.000000" stroke="none" 
	d="
M158.165070,488.500702 
	C153.703217,490.663391 149.241348,492.826080 144.373566,494.991974 
	C135.010269,487.566986 126.052872,480.138733 117.206421,472.203278 
	C120.222404,467.254730 125.153748,466.973999 129.885422,465.862915 
	C139.497803,473.510162 148.831436,481.005432 158.165070,488.500702 
z"/>
<path fill="#7158B2" opacity="1.000000" stroke="none" 
	d="
M505.053528,398.024231 
	C505.861237,397.862396 506.847656,397.942810 507.447968,397.499908 
	C511.794128,394.293274 514.978516,395.858948 517.975586,399.970215 
	C513.337769,409.434631 508.446838,418.762024 503.406738,428.008057 
	C502.069702,430.460846 500.273743,432.663483 498.418335,435.202545 
	C497.242340,428.967987 492.558197,428.663513 487.217957,428.563782 
	C492.950195,418.154968 499.001862,408.089600 505.053528,398.024231 
z"/>
<path fill="#8050AF" opacity="1.000000" stroke="none" 
	d="
M455.709595,464.416901 
	C459.314880,466.809479 462.920135,469.202057 466.778442,471.826996 
	C457.608704,480.032715 448.185913,488.006104 438.232422,495.796082 
	C436.026855,494.379150 434.440216,492.994720 432.654541,491.950836 
	C430.479614,490.679321 428.137177,489.694336 426.069763,488.336182 
	C436.084778,480.196930 445.897186,472.306915 455.709595,464.416901 
z"/>
<path fill="#4A8CCD" opacity="1.000000" stroke="none" 
	d="
M515.024109,177.003540 
	C519.738525,188.142227 524.452942,199.280914 528.728149,210.639648 
	C526.985535,209.886322 525.712891,208.867813 524.369019,207.953964 
	C523.320618,207.241058 522.183838,206.658295 521.086304,206.017700 
	C520.418945,207.245224 519.669983,208.436462 519.104187,209.709167 
	C518.335693,211.437775 517.707275,213.228699 516.794373,214.712494 
	C512.122253,203.950333 507.674530,193.468552 503.493835,182.761566 
	C504.075104,180.668182 504.368073,178.796051 504.710724,176.933060 
	C504.960541,175.574722 505.275940,174.228424 505.562103,172.876770 
	C506.998077,173.378952 508.473877,173.791351 509.860016,174.405930 
	C511.619446,175.185989 513.306091,176.130142 515.024109,177.003540 
z"/>
<path fill="#8655B3" opacity="1.000000" stroke="none" 
	d="
M129.606674,465.710938 
	C125.153748,466.973999 120.222404,467.254730 117.031799,471.913513 
	C111.554680,466.700562 106.363121,461.270203 101.148804,455.180023 
	C103.244080,450.366150 105.362122,446.212067 107.728951,442.342407 
	C109.340614,442.870636 110.810387,443.551880 112.040253,443.251343 
	C113.706779,442.844086 115.189438,441.684326 116.991798,441.104797 
	C120.174438,444.281281 123.116264,447.200348 125.894943,450.415894 
	C123.815948,452.197449 121.900101,453.682526 119.741325,455.355896 
	C123.225334,459.012848 126.416000,462.361908 129.606674,465.710938 
z"/>
<path fill="#3F9ED8" opacity="1.000000" stroke="none" 
	d="
M149.668427,85.102005 
	C151.915939,85.018486 154.033463,85.557335 155.712036,84.927086 
	C160.790894,83.020134 165.750504,80.766563 170.650345,78.425652 
	C172.717834,77.437897 174.846024,75.200172 176.249268,78.656067 
	C177.540161,81.835274 174.592941,82.271362 172.474579,83.177284 
	C169.380127,84.500626 165.618683,85.253464 165.606522,90.214867 
	C165.634003,90.626663 165.564453,90.570992 165.248657,90.604317 
	C164.297119,91.115700 163.661377,91.593758 162.836304,92.347023 
	C156.769485,96.765694 150.891998,100.909142 144.878632,104.716858 
	C142.268723,97.386154 140.641495,96.897980 134.623856,101.263557 
	C132.900314,102.513924 131.213196,103.935913 129.285370,104.746307 
	C127.630096,105.442146 125.655197,105.377647 123.821640,105.649384 
	C132.327011,98.829529 140.832367,92.009682 149.668427,85.102005 
z"/>
<path fill="#4B8ACA" opacity="1.000000" stroke="none" 
	d="
M91.568054,140.851196 
	C92.796478,141.111832 94.005562,142.194000 94.640060,141.924301 
	C98.995949,140.072891 101.606499,141.984818 103.728989,146.201782 
	C97.991295,155.392792 92.129669,163.990250 86.268036,172.587723 
	C82.780777,166.286148 81.895798,166.062180 75.626801,169.630463 
	C74.993759,169.990784 74.080078,169.858063 73.026215,169.816681 
	C78.931488,160.135208 85.107162,150.591187 91.568054,140.851196 
z"/>
<path fill="#4E85C7" opacity="1.000000" stroke="none" 
	d="
M517.018799,214.992889 
	C517.707275,213.228699 518.335693,211.437775 519.104187,209.709167 
	C519.669983,208.436462 520.418945,207.245224 521.086304,206.017700 
	C522.183838,206.658295 523.320618,207.241058 524.369019,207.953964 
	C525.712891,208.867813 526.985535,209.886322 528.626831,210.923172 
	C531.014099,216.805283 533.165039,222.590881 535.071777,228.455872 
	C536.099243,231.616486 536.708435,234.913086 537.537964,238.500748 
	C532.704590,235.488892 528.381409,235.598160 524.397095,240.550705 
	C521.630066,231.841003 519.324402,223.416946 517.018799,214.992889 
z"/>
<path fill="#4B93D0" opacity="1.000000" stroke="none" 
	d="
M514.962708,176.652069 
	C513.306091,176.130142 511.619446,175.185989 509.860016,174.405930 
	C508.473877,173.791351 506.998077,173.378952 505.562103,172.876770 
	C505.275940,174.228424 504.960541,175.574722 504.710724,176.933060 
	C504.368073,178.796051 504.075104,180.668182 503.286255,182.476105 
	C497.825043,174.057236 492.838409,165.698669 488.040527,157.021011 
	C489.916168,152.016373 493.520538,150.157303 498.225433,149.920395 
	C503.784058,158.713791 509.342682,167.507202 514.962708,176.652069 
z"/>
<path fill="#874DB1" opacity="1.000000" stroke="none" 
	d="
M425.867157,488.585419 
	C428.137177,489.694336 430.479614,490.679321 432.654541,491.950836 
	C434.440216,492.994720 436.026855,494.379150 437.903870,495.905365 
	C431.282990,500.720612 424.460022,505.243134 417.298828,509.845703 
	C412.244141,508.300201 406.984772,507.619781 404.336304,502.038544 
	C411.593781,497.176880 418.730469,492.881134 425.867157,488.585419 
z"/>
<path fill="#4695D1" opacity="1.000000" stroke="none" 
	d="
M123.514587,105.794846 
	C125.655197,105.377647 127.630096,105.442146 129.285370,104.746307 
	C131.213196,103.935913 132.900314,102.513924 134.623856,101.263557 
	C140.641495,96.897980 142.268723,97.386154 144.700317,105.002525 
	C142.659531,107.281715 140.640518,108.915367 138.666840,110.602043 
	C133.786041,114.773079 128.926010,118.968384 124.057632,123.153931 
	C122.627075,117.482010 121.112862,116.435974 113.199188,115.933365 
	C116.248795,112.591492 119.728172,109.265907 123.514587,105.794846 
z"/>
<path fill="#7D52B3" opacity="1.000000" stroke="none" 
	d="
M107.480164,442.057983 
	C105.362122,446.212067 103.244080,450.366150 101.006317,454.884338 
	C96.184174,449.310120 91.481750,443.371826 86.647949,437.144012 
	C89.549088,433.714661 92.581604,430.574829 96.093994,427.370911 
	C100.209305,432.223907 103.844742,437.140930 107.480164,442.057983 
z"/>
<path fill="#923FA8" opacity="1.000000" stroke="none" 
	d="
M183.050354,518.608643 
	C183.164566,518.065796 183.539246,517.449646 183.906631,517.453979 
	C189.178329,517.515991 191.960434,513.339600 196.180557,510.372131 
	C201.214935,511.861328 205.688675,513.644836 210.162415,515.428406 
	C206.887802,518.741821 203.613174,522.055237 200.171692,525.648315 
	C194.439041,523.559998 188.873215,521.191895 183.050354,518.608643 
z"/>
<path fill="#4695D1" opacity="1.000000" stroke="none" 
	d="
M498.160919,149.566986 
	C493.520538,150.157303 489.916168,152.016373 487.769836,156.809143 
	C484.493622,152.964233 481.676910,149.012085 478.860168,145.059937 
	C479.719482,144.103027 481.422577,143.015640 481.298157,142.210800 
	C480.606079,137.734573 483.163574,136.083740 487.118713,134.916260 
	C491.020844,139.581207 494.558624,144.397385 498.160919,149.566986 
z"/>
<path fill="#1C2029" opacity="1.000000" stroke="none" 
	d="
M107.728958,442.342407 
	C103.844742,437.140930 100.209305,432.223907 96.304810,427.103760 
	C90.280006,417.069275 84.524269,407.237946 78.536667,397.169617 
	C73.417320,384.015198 68.529831,371.097809 63.432877,357.860657 
	C60.504223,342.628876 57.785042,327.716827 54.964348,312.399475 
	C54.657707,307.913300 54.452572,303.832489 54.229595,299.396698 
	C56.339394,299.303101 57.956741,299.170563 59.574249,299.168549 
	C87.798897,299.133270 116.023575,299.094635 144.248230,299.103485 
	C152.359818,299.106049 151.496628,298.121887 151.818054,306.632477 
	C151.849365,307.461731 151.905289,308.290100 151.972229,310.022400 
	C152.734619,319.617096 153.474609,328.308258 154.180481,337.423767 
	C156.811951,352.565308 159.477539,367.282532 162.142578,382.393127 
	C164.611176,391.569275 167.080322,400.351990 169.648865,409.511292 
	C170.208771,411.571686 170.669281,413.255493 171.175247,415.105499 
	C165.901428,417.261322 160.948303,419.286041 155.652344,421.382446 
	C142.456650,427.918518 129.603806,434.382965 116.750977,440.847382 
	C115.189438,441.684326 113.706779,442.844086 112.040253,443.251343 
	C110.810387,443.551880 109.340614,442.870636 107.728958,442.342407 
z"/>
<path fill="#1B2029" opacity="1.000000" stroke="none" 
	d="
M86.179932,172.909775 
	C92.129669,163.990250 97.991295,155.392792 103.951492,146.473816 
	C105.913391,144.101791 107.776703,142.051270 109.686394,139.949707 
	C114.003799,142.327606 118.151871,144.612244 122.863625,147.225739 
	C136.405670,153.516983 149.384048,159.479401 162.668182,165.645157 
	C165.686905,166.933090 168.399902,168.017670 170.918365,169.024475 
	C167.908661,180.341614 165.029617,191.167465 161.989044,202.341980 
	C159.598038,214.791885 157.368561,226.893112 155.023956,239.390167 
	C153.933426,254.190475 152.958008,268.594940 151.982590,282.999420 
	C150.526627,283.723083 149.073135,285.072418 147.614349,285.078186 
	C117.832855,285.195770 88.050575,285.112122 58.269005,285.219879 
	C54.878273,285.232147 53.762199,283.991180 54.123344,280.437927 
	C56.348766,265.277618 58.646156,250.540237 60.936653,235.394348 
	C66.419975,213.220718 75.118950,192.763016 86.179932,172.909775 
z"/>
<path fill="#1B2029" opacity="1.000000" stroke="none" 
	d="
M389.009247,298.898865 
	C389.451385,298.939667 389.893494,298.980469 391.109711,299.038635 
	C394.591858,299.003052 397.299896,298.950043 400.007965,298.897064 
	C405.910675,298.897064 411.813354,298.897064 418.177979,298.897064 
	C418.359467,300.984528 418.496826,302.564331 418.594055,304.942993 
	C417.814240,316.158752 417.074554,326.575623 416.224548,337.400360 
	C414.085052,350.208771 412.055939,362.609314 409.853271,375.342163 
	C407.139069,385.119690 404.598450,394.564911 401.859314,404.320435 
	C400.072296,406.744537 401.343414,411.581787 395.947296,410.014893 
	C365.451233,401.159607 334.306030,396.434174 302.553711,395.871002 
	C299.607361,395.818726 298.798767,394.485657 298.845093,391.523560 
	C298.857025,377.042114 298.803894,363.024506 298.824188,348.542908 
	C298.851135,337.052094 298.804657,326.025269 298.758179,314.998413 
	C298.758179,310.024780 298.758179,305.051117 298.758179,299.034851 
	C317.664093,299.034851 336.029816,299.034851 355.222748,299.046753 
	C367.036377,299.005402 378.022827,298.952148 389.009247,298.898865 
z"/>
<path fill="#1C2029" opacity="1.000000" stroke="none" 
	d="
M165.195633,305.962067 
	C165.288940,303.982208 165.382263,302.002380 165.500427,299.495575 
	C166.960541,299.358032 168.370346,299.109833 169.780243,299.109344 
	C206.513260,299.096161 243.246475,299.168060 279.978973,299.031647 
	C283.969604,299.016846 285.256012,300.212189 284.983826,304.121338 
	C284.684479,308.421082 284.931244,312.758881 284.936157,318.006927 
	C284.978088,329.290192 285.023865,339.646606 284.997742,350.466614 
	C284.968231,363.618622 285.010651,376.306976 284.976440,389.416840 
	C285.533142,394.490997 283.623199,395.701172 278.882202,396.055756 
	C261.890778,397.326538 244.953278,399.318085 227.580322,401.021240 
	C212.966583,404.138794 198.767914,407.272186 184.413223,410.440033 
	C183.560425,408.291412 182.708176,406.144196 181.839508,403.615051 
	C179.488419,394.822418 177.153717,386.411713 174.815857,377.605286 
	C172.344406,363.119324 169.876160,349.029144 167.428314,334.478333 
	C166.697708,324.665833 165.946671,315.313934 165.195633,305.962067 
z"/>
<path fill="#1B2029" opacity="1.000000" stroke="none" 
	d="
M285.047729,282.000946 
	C285.068054,285.071869 283.087158,285.222076 280.700165,285.204742 
	C270.239716,285.128601 259.778473,285.163696 249.317505,285.158813 
	C222.750031,285.146454 196.182358,285.171539 169.615616,285.024536 
	C168.110062,285.016205 166.612305,283.597015 165.122955,282.000366 
	C166.437912,265.778778 167.740845,250.391281 169.205688,234.650513 
	C171.218826,224.525360 173.070038,214.753479 175.023743,204.601227 
	C178.158188,193.981979 181.190140,183.743103 184.341827,173.099884 
	C217.515152,183.308334 250.711502,187.846603 285.042450,188.448715 
	C285.042450,195.405655 285.042450,201.702576 284.964813,208.462616 
	C284.946686,219.951035 285.006226,230.976334 284.988495,242.464706 
	C284.956726,255.952164 285.002228,268.976562 285.047729,282.000946 
z"/>
<path fill="#1B2029" opacity="1.000000" stroke="none" 
	d="
M418.915802,281.008911 
	C419.128143,284.596832 417.222504,285.269775 413.981720,285.242523 
	C399.528992,285.120941 385.074188,285.248749 369.759216,285.280762 
	C351.591919,285.322754 334.285492,285.370453 316.979065,285.418121 
	C311.112732,285.175018 305.246368,284.931915 299.165771,283.976074 
	C298.903168,282.502899 298.854828,281.742401 298.871155,280.518372 
	C298.868927,268.035675 298.802032,256.016510 298.804565,243.533218 
	C298.822968,231.376785 298.772003,219.684494 298.794586,207.529495 
	C298.868134,200.982529 298.868134,194.898254 298.868134,188.642242 
	C308.889313,188.074966 318.224213,188.136230 327.383759,186.899307 
	C343.974426,184.658920 360.460541,181.644562 377.392548,178.958862 
	C381.169830,178.172562 384.568939,177.470459 387.915497,176.572403 
	C398.974701,173.604691 398.967407,173.577530 403.129974,184.381927 
	C406.147675,196.510239 409.156769,208.250443 412.154114,220.402054 
	C412.449646,222.608887 412.853729,224.393829 413.049164,226.201324 
	C415.024292,244.468399 416.965240,262.739166 418.915802,281.008911 
z"/>
<path fill="#5C73C1" opacity="1.000000" stroke="none" 
	d="
M169.043762,235.003784 
	C167.740845,250.391281 166.437912,265.778778 165.044891,281.582306 
	C160.919968,282.330109 156.885147,282.661865 152.416473,282.996521 
	C152.958008,268.594940 153.933426,254.190475 155.394562,239.368683 
	C160.268112,237.635498 164.655930,236.319641 169.043762,235.003784 
z"/>
<path fill="#5A6CB7" opacity="1.000000" stroke="none" 
	d="
M317.147339,285.680908 
	C334.285492,285.370453 351.591919,285.322754 369.345215,285.355164 
	C371.982666,286.621155 374.055054,288.425446 376.387115,288.871216 
	C382.206726,289.983612 385.683746,293.824005 388.951904,298.554291 
	C378.022827,298.952148 367.036377,299.005402 355.674805,298.978882 
	C353.733154,297.861542 352.172272,296.815491 350.598999,295.788330 
	C347.548340,293.796600 344.350342,291.996307 341.482880,289.769592 
	C339.392059,288.145966 337.724152,287.581848 337.412598,290.723236 
	C337.083069,294.045624 335.317169,293.585938 332.970062,293.562469 
	C326.471710,293.497559 320.973328,291.696777 317.147339,285.680908 
z"/>
<path fill="#5C73C1" opacity="1.000000" stroke="none" 
	d="
M298.735168,243.997360 
	C298.802032,256.016510 298.868927,268.035675 298.521301,280.518555 
	C297.407349,280.990234 296.707947,280.998169 296.008545,281.006104 
	C295.203735,280.723145 294.398895,280.440155 293.028442,279.981995 
	C291.317657,280.534698 290.172455,281.262634 289.027283,281.990540 
	C287.966064,281.993622 286.904846,281.996674 285.445679,282.000336 
	C285.002228,268.976562 284.956726,255.952164 285.388580,242.442932 
	C290.543030,240.193436 294.612732,242.261780 298.735168,243.997360 
z"/>
<path fill="#6967BB" opacity="1.000000" stroke="none" 
	d="
M285.069672,350.003021 
	C285.023865,339.646606 284.978088,329.290192 285.006836,318.471222 
	C287.213898,317.621582 289.365997,317.318298 291.473450,316.824371 
	C293.656464,316.312744 295.796173,315.616394 298.356506,314.999634 
	C298.804657,326.025269 298.851135,337.052094 298.446838,348.520386 
	C293.687286,349.308868 289.378479,349.655945 285.069672,350.003021 
z"/>
<path fill="#6967BB" opacity="1.000000" stroke="none" 
	d="
M164.832718,306.054077 
	C165.946671,315.313934 166.697708,324.665833 167.024750,334.411194 
	C162.472015,335.536285 158.343307,336.267853 154.214600,336.999420 
	C153.474609,328.308258 152.734619,319.617096 152.058777,310.467560 
	C156.238525,308.721497 160.354172,307.433777 164.832718,306.054077 
z"/>
<path fill="#5A6CB7" opacity="1.000000" stroke="none" 
	d="
M289.353729,281.949219 
	C290.172455,281.262634 291.317657,280.534698 292.716675,279.908813 
	C291.873718,280.643219 290.776947,281.275543 289.353729,281.949219 
z"/>
<path fill="#5A6CB7" opacity="1.000000" stroke="none" 
	d="
M296.070068,281.323730 
	C296.707947,280.998169 297.407349,280.990234 298.456604,280.982117 
	C298.854828,281.742401 298.903168,282.502899 298.879517,283.639465 
	C297.915558,283.224182 297.023590,282.432770 296.070068,281.323730 
z"/>
<path fill="#5A6CB7" opacity="1.000000" stroke="none" 
	d="
M298.136444,291.908173 
	C298.181152,291.960052 297.888092,292.128448 297.888092,292.128448 
	C297.888092,292.128448 298.091736,291.856293 298.136444,291.908173 
z"/>
<path fill="#1B2129" opacity="1.000000" stroke="none" 
	d="
M245.216919,76.606514 
	C254.960617,68.310661 265.775116,61.828362 277.814850,57.447807 
	C279.790558,56.728973 281.846802,56.231567 284.865356,55.334927 
	C284.865356,62.036999 284.865356,68.057594 284.856689,75.001717 
	C284.918091,86.616859 284.988129,97.308472 284.974823,108.462219 
	C284.951691,121.280609 285.011932,133.636871 284.988586,146.455841 
	C284.959198,154.611313 285.013367,162.304047 284.984497,170.396973 
	C285.217682,173.740814 284.157288,175.005661 280.962433,174.733673 
	C274.165894,174.155075 267.335205,173.986725 260.533844,173.454163 
	C236.737274,171.590836 213.408585,167.084961 190.327423,160.475128 
	C191.265472,157.123856 192.274567,154.127579 193.506683,150.873840 
	C197.505951,142.782043 201.282211,134.947754 205.322906,126.892120 
	C211.176453,118.093315 216.765564,109.515862 222.638748,100.718803 
	C230.354172,92.534966 237.785553,84.570740 245.216919,76.606514 
z"/>
<path fill="#1B2029" opacity="1.000000" stroke="none" 
	d="
M298.705994,74.999443 
	C298.705963,68.699219 298.705963,62.398998 298.705963,55.449200 
	C316.435913,59.156761 329.674683,69.020439 342.742157,80.449905 
	C349.414307,87.709862 355.629395,94.531242 361.952820,101.665817 
	C368.040558,110.985321 374.019897,119.991638 380.056274,129.348938 
	C384.798676,139.463394 389.484070,149.226883 394.067566,159.354462 
	C392.215118,160.477158 390.527740,161.479492 388.703094,161.952469 
	C380.491882,164.081116 372.241730,166.059540 363.594452,168.072571 
	C342.040161,171.817719 320.798157,174.503723 299.230225,174.538589 
	C299.025269,172.277084 298.876526,170.635727 298.798859,168.530136 
	C298.797363,159.707123 298.724792,151.348328 298.729462,142.527283 
	C298.759949,130.042969 298.713196,118.020927 298.748260,105.536682 
	C298.788727,95.049469 298.747345,85.024452 298.705994,74.999443 
z"/>
<path fill="#1B2129" opacity="1.000000" stroke="none" 
	d="
M123.989685,123.486366 
	C128.926010,118.968384 133.786041,114.773079 138.666840,110.602043 
	C140.640518,108.915367 142.659531,107.281715 144.836212,105.338257 
	C150.891998,100.909142 156.769485,96.765694 163.127869,92.289024 
	C164.260651,91.494202 164.912552,91.032600 165.564453,90.570992 
	C165.564453,90.570992 165.634003,90.626663 165.662140,90.592209 
	C185.098846,78.618797 205.710403,69.375877 227.884033,62.786541 
	C233.583786,61.324532 238.975830,60.020126 244.367889,58.715721 
	C244.537628,58.990543 244.707367,59.265366 244.877106,59.540184 
	C241.183472,62.755276 237.489853,65.970367 233.313339,69.610962 
	C226.517090,76.955338 220.203735,83.874207 213.601532,90.969604 
	C205.858643,102.735298 198.404572,114.324463 190.683533,126.135452 
	C186.083450,135.862991 181.750336,145.368698 177.193542,155.115433 
	C175.275467,155.099213 173.465408,155.140274 171.905838,154.535431 
	C162.982193,151.074707 154.118057,147.460449 145.233719,143.898315 
	C136.700821,139.234711 128.167938,134.571121 119.316956,129.733673 
	C121.343567,127.130478 122.632645,125.474640 123.989685,123.486366 
z"/>
<path fill="#1B2029" opacity="1.000000" stroke="none" 
	d="
M425.694214,95.635345 
	C435.345093,103.295448 444.684967,110.844879 454.322571,118.575806 
	C458.206818,121.668373 461.793304,124.579445 465.379791,127.490524 
	C464.981873,128.138260 464.583923,128.785995 464.186005,129.433731 
	C458.941864,132.451370 453.697723,135.468994 447.865295,138.787750 
	C437.853882,143.444977 428.430695,147.801102 418.643005,152.181549 
	C415.819733,153.086609 413.296570,153.823547 410.920074,154.887970 
	C408.484802,155.978760 406.954254,155.351074 405.912415,152.638428 
	C401.607239,143.510651 397.341461,134.744522 393.007233,125.630981 
	C386.672577,115.524315 380.406342,105.765060 374.026001,95.678848 
	C366.871307,87.469353 359.830780,79.586807 352.790222,71.704269 
	C348.150421,67.685760 343.510620,63.667244 337.795898,58.717751 
	C342.955994,59.771786 346.753571,60.547501 351.107635,61.498398 
	C352.101685,61.738064 352.539246,61.802544 352.976776,61.867020 
	C358.067047,63.519218 363.157349,65.171417 368.621490,66.843460 
	C379.753967,71.554810 390.512573,76.246315 401.807312,81.227997 
	C402.877411,81.722816 403.411377,81.927452 403.945374,82.132088 
	C411.091309,86.596291 418.237274,91.060486 425.694214,95.635345 
z"/>
<path fill="#3BA3DB" opacity="1.000000" stroke="none" 
	d="
M298.387146,74.918533 
	C298.747345,85.024452 298.788727,95.049469 298.433899,105.456131 
	C294.529999,102.206062 291.247314,101.812233 288.028046,106.295219 
	C287.422028,107.139183 286.067383,107.445610 285.058197,108.000076 
	C284.988129,97.308472 284.918091,86.616859 284.936737,75.464371 
	C285.454254,74.763107 285.949463,74.595108 286.301880,74.271530 
	C291.705841,69.309685 291.694946,69.311699 296.745758,74.216484 
	C297.076111,74.537308 297.622437,74.635742 298.387146,74.918533 
z"/>
<path fill="#37A5DE" opacity="1.000000" stroke="none" 
	d="
M352.353455,71.731552 
	C359.830780,79.586807 366.871307,87.469353 373.623535,95.670731 
	C372.685425,95.945480 371.991486,96.033890 371.393494,95.834496 
	C368.720734,94.943283 366.075378,93.969986 363.420105,93.026329 
	C362.894867,95.801765 362.369659,98.577202 361.844452,101.352631 
	C355.629395,94.531242 349.414307,87.709862 343.052094,80.600861 
	C341.966614,76.739166 341.028290,73.165085 339.881836,68.798317 
	C344.504883,69.935562 348.210815,70.847198 352.353455,71.731552 
z"/>
<path fill="#37A5DE" opacity="1.000000" stroke="none" 
	d="
M213.890381,90.793076 
	C220.203735,83.874207 226.517090,76.955338 233.114807,69.898613 
	C237.210846,69.060318 241.022552,68.359871 245.170471,67.597641 
	C245.170471,70.569168 245.170471,73.141586 245.193695,76.160255 
	C237.785553,84.570740 230.354172,92.534966 222.621307,100.278870 
	C223.277954,96.376740 224.236115,92.694923 225.604538,87.436615 
	C222.591461,88.863495 220.760681,90.006287 218.766205,90.585274 
	C217.248703,91.025803 215.523285,90.750107 213.890381,90.793076 
z"/>
<path fill="#37A5DE" opacity="1.000000" stroke="none" 
	d="
M356.093689,49.873634 
	C356.699707,51.501572 357.291016,53.164967 357.888092,54.844547 
	C353.908478,55.016315 353.611633,54.412495 355.865417,50.079750 
	C356.151428,49.883915 356.078979,49.909088 356.093689,49.873634 
z"/>
<path fill="#37A5DE" opacity="1.000000" stroke="none" 
	d="
M352.701416,61.727737 
	C352.539246,61.802544 352.101685,61.738064 351.477173,61.391747 
	C351.668823,61.269424 352.047424,61.428940 352.701416,61.727737 
z"/>
<path fill="#1C2029" opacity="1.000000" stroke="none" 
	d="
M285.054626,513.006897 
	C285.054626,517.803040 285.054626,522.599121 285.054626,528.749329 
	C279.675385,526.907654 275.261047,525.396301 270.234070,523.575439 
	C257.385559,517.247498 246.517075,509.307587 237.250488,499.343384 
	C230.574631,492.164948 224.369034,484.549164 217.843201,476.802124 
	C214.475952,471.655792 211.219193,466.835785 207.875153,461.678162 
	C204.555344,455.551422 201.322800,449.762299 198.033569,443.613037 
	C195.225647,436.961334 192.474426,430.669708 189.606537,424.111298 
	C210.256241,417.696259 230.639969,414.306183 251.613586,411.570831 
	C262.854736,410.880615 273.637787,410.174774 284.608704,409.456635 
	C284.791351,413.438538 284.919159,416.225159 284.979309,419.475098 
	C284.963379,430.961945 285.015167,441.985443 284.996582,453.472198 
	C284.968475,462.958832 285.010773,471.982239 284.979614,481.468994 
	C284.955627,492.290558 285.005127,502.648712 285.054626,513.006897 
z"/>
<path fill="#1B2029" opacity="1.000000" stroke="none" 
	d="
M322.716095,518.856934 
	C315.227051,522.218933 307.738007,525.580994 298.902039,529.547729 
	C298.902039,523.454346 298.902039,519.195679 298.909607,514.012878 
	C298.866760,501.729340 298.816345,490.369873 298.835388,478.545654 
	C298.855499,470.057983 298.806122,462.035034 298.828491,453.547577 
	C298.869934,440.728729 298.839600,428.374390 298.880249,415.579956 
	C299.072845,413.526978 299.194489,411.914124 299.309265,410.392273 
	C314.714417,407.435486 382.166687,417.685028 393.838043,424.679199 
	C393.578613,425.770569 393.312653,426.889496 392.820496,428.277283 
	C390.364227,433.641571 388.134094,438.737030 385.660645,444.080017 
	C382.250610,450.205750 379.083923,456.083893 375.658813,462.175415 
	C368.920013,471.564819 362.439636,480.740875 355.672913,490.089661 
	C345.873230,501.366974 334.950897,510.861725 322.716095,518.856934 
z"/>
<path fill="#1B2029" opacity="1.000000" stroke="none" 
	d="
M426.069763,488.336182 
	C418.730469,492.881134 411.593781,497.176880 404.219788,501.717041 
	C386.590942,510.755005 368.607330,518.015930 349.355133,523.070068 
	C345.984161,523.748230 342.973511,524.281982 339.962891,524.815796 
	C339.818542,524.538208 339.674194,524.260620 339.529877,523.982971 
	C340.817291,522.941711 342.104736,521.900391 343.888153,520.454346 
	C352.350220,511.879852 360.316315,503.710114 368.554321,495.326477 
	C374.907928,486.417297 380.989624,477.722076 387.333130,468.813904 
	C390.676331,462.737946 393.757751,456.874878 396.946960,450.669617 
	C399.721588,444.558563 402.388397,438.789734 405.271118,432.764343 
	C406.135773,431.194946 406.784515,429.882111 407.613617,428.204285 
	C414.169189,430.624512 420.518677,432.968628 426.868195,435.312805 
	C439.352356,441.652618 451.836548,447.992432 464.320740,454.332214 
	C464.514282,455.116486 464.707825,455.900757 464.901367,456.685028 
	C461.950989,459.084198 459.000610,461.483368 455.879913,464.149719 
	C445.897186,472.306915 436.084778,480.196930 426.069763,488.336182 
z"/>
<path fill="#1C2029" opacity="1.000000" stroke="none" 
	d="
M210.536758,515.520874 
	C205.688675,513.644836 201.214935,511.861328 196.369690,510.101501 
	C183.602234,503.021210 171.206268,495.917236 158.487686,488.656982 
	C148.831436,481.005432 139.497803,473.510162 129.885422,465.862915 
	C126.416000,462.361908 123.225334,459.012848 119.741325,455.355896 
	C121.900101,453.682526 123.815948,452.197449 126.263489,450.384277 
	C141.285980,443.421661 155.776764,436.787201 170.646347,430.112885 
	C172.742981,429.606873 174.460846,429.140747 176.237579,428.658630 
	C179.584290,435.625153 182.795456,442.309509 186.074631,449.346588 
	C189.331451,455.467499 192.520264,461.235687 195.815384,467.350891 
	C200.244400,474.197388 204.567108,480.696838 209.024078,487.500610 
	C218.206116,497.617004 227.253876,507.429108 236.301651,517.241211 
	C238.953445,519.649292 241.605240,522.057434 244.257019,524.465515 
	C244.203720,524.763489 244.150436,525.061401 244.097137,525.359314 
	C242.672150,525.033203 241.247177,524.707092 239.147949,524.219055 
	C232.645432,522.436646 226.817169,520.816162 220.988907,519.195679 
	C217.629639,518.001587 214.270370,516.807434 210.536758,515.520874 
z"/>
<path fill="#8F45AB" opacity="1.000000" stroke="none" 
	d="
M236.795929,517.203979 
	C227.253876,507.429108 218.206116,497.617004 209.237411,487.225647 
	C212.195557,483.473724 215.074615,480.301086 217.953674,477.128418 
	C224.369034,484.549164 230.574631,492.164948 237.250488,499.343384 
	C246.517075,509.307587 257.385559,517.247498 269.866028,523.499146 
	C268.388428,523.792786 266.630615,524.089111 264.955750,523.836060 
	C263.701416,523.646545 262.471649,522.874084 261.372253,522.147339 
	C253.998199,517.273010 246.039413,515.338074 236.795929,517.203979 
z"/>
<path fill="#8F45AB" opacity="1.000000" stroke="none" 
	d="
M368.282440,495.540344 
	C360.316315,503.710114 352.350220,511.879852 344.105042,520.180420 
	C337.057129,519.927979 330.288361,519.544617 323.117828,519.009094 
	C334.950897,510.861725 345.873230,501.366974 355.819519,490.432251 
	C358.061249,491.405151 359.852173,492.251862 361.683441,492.999847 
	C363.865051,493.890930 366.081238,494.697296 368.282440,495.540344 
z"/>
<path fill="#8F45AB" opacity="1.000000" stroke="none" 
	d="
M298.765930,479.010406 
	C298.816345,490.369873 298.866760,501.729340 298.840637,513.553650 
	C294.470703,513.677979 290.177307,513.337463 285.469299,513.001953 
	C285.005127,502.648712 284.955627,492.290558 285.328735,481.373047 
	C289.871918,478.642334 294.167755,477.735565 298.765930,479.010406 
z"/>
<path fill="#923FA8" opacity="1.000000" stroke="none" 
	d="
M220.990112,519.605225 
	C226.817169,520.816162 232.645432,522.436646 238.792526,524.191406 
	C236.667328,530.102905 230.969223,528.076233 226.699722,529.267456 
	C224.873795,529.776855 222.590881,528.648376 220.384094,528.239685 
	C220.585526,525.511353 220.788422,522.763062 220.990112,519.605225 
z"/>
<path fill="#1B2029" opacity="1.000000" stroke="none" 
	d="
M505.119324,397.667175 
	C499.001862,408.089600 492.950195,418.154968 486.753723,428.542603 
	C483.362122,433.052368 479.942139,437.119843 476.927338,441.468262 
	C474.806244,444.527588 473.019775,444.231293 469.981781,442.609406 
	C456.987366,435.671906 443.806213,429.084290 430.032745,422.118835 
	C425.996429,420.505249 422.714844,418.783325 419.221954,417.864685 
	C414.277618,416.564331 411.672546,414.390259 414.324463,408.754272 
	C417.575623,397.043884 420.610443,385.618591 423.773560,373.856201 
	C425.856934,361.010864 427.812012,348.502594 429.870972,335.582092 
	C430.595978,325.777588 431.217102,316.385315 431.838226,306.993073 
	C432.486389,299.090881 432.486389,299.089783 440.642792,299.088806 
	C468.419159,299.085449 496.195496,299.079071 523.971863,299.090057 
	C525.591064,299.090698 527.210327,299.234528 529.464905,299.342010 
	C529.199280,304.826538 528.952515,309.920776 528.739746,315.479370 
	C525.934143,330.040833 523.094482,344.137939 520.230225,358.618439 
	C515.198792,371.771240 510.191956,384.540649 505.119324,397.667175 
z"/>
<path fill="#1B2029" opacity="1.000000" stroke="none" 
	d="
M478.571869,144.891098 
	C481.676910,149.012085 484.493622,152.964233 487.581055,157.128250 
	C492.838409,165.698669 497.825043,174.057236 503.019257,182.701279 
	C507.674530,193.468552 512.122253,203.950333 516.794373,214.712494 
	C519.324402,223.416946 521.630066,231.841003 524.079102,240.632446 
	C525.957153,255.370361 527.691772,269.740875 529.425415,284.583801 
	C498.485718,285.097351 467.546783,285.089294 436.608734,285.249512 
	C433.213013,285.267120 431.576385,284.371857 431.948730,279.958130 
	C431.555664,257.139221 429.313629,235.423172 424.554871,213.561890 
	C424.067688,211.602997 423.590424,210.076767 423.189423,208.530762 
	C420.807922,199.349136 418.444092,190.162933 416.055725,180.590118 
	C414.943207,176.492554 413.849274,172.783127 412.753784,169.068329 
	C418.513641,166.755188 423.809509,164.628387 429.476013,162.393036 
	C440.229828,157.215820 450.613007,152.147156 460.996185,147.078506 
	C465.299133,144.782730 469.602112,142.486954 474.153900,140.058395 
	C475.525970,141.607941 476.904755,143.165100 478.571869,144.891098 
z"/>
<path fill="#567DC4" opacity="1.000000" stroke="none" 
	d="
M424.600006,213.985397 
	C429.313629,235.423172 431.555664,257.139221 431.865845,279.528931 
	C427.640564,278.800659 423.528931,278.370697 419.266418,280.921234 
	C416.965240,262.739166 415.024292,244.468399 413.049164,226.201324 
	C412.853729,224.393829 412.449646,222.608887 412.485046,220.317108 
	C413.565155,219.194672 414.791931,218.679398 414.962769,217.925003 
	C416.327087,211.899933 419.953247,211.776962 424.600006,213.985397 
z"/>
<path fill="#606EB9" opacity="1.000000" stroke="none" 
	d="
M431.469940,306.971954 
	C431.217102,316.385315 430.595978,325.777588 429.511169,335.537476 
	C424.809937,336.267578 420.572388,336.630035 416.334900,336.992523 
	C417.074554,326.575623 417.814240,316.158752 418.676208,305.350403 
	C422.899567,305.622925 427.000610,306.286896 431.469940,306.971954 
z"/>
<path fill="#5A6CB7" opacity="1.000000" stroke="none" 
	d="
M399.927063,298.554016 
	C397.299896,298.950043 394.591858,299.003052 391.438416,298.976929 
	C394.033051,294.029602 396.488800,293.839081 399.927063,298.554016 
z"/>
<path fill="#7158B2" opacity="1.000000" stroke="none" 
	d="
M414.108124,409.039337 
	C411.672546,414.390259 414.277618,416.564331 419.221954,417.864685 
	C422.714844,418.783325 425.996429,420.505249 429.683472,422.054565 
	C429.016724,426.345215 428.038849,430.449951 426.964569,434.933716 
	C420.518677,432.968628 414.169189,430.624512 407.613617,428.204285 
	C406.784515,429.882111 406.135773,431.194946 404.932373,432.656494 
	C400.600677,431.206238 396.823669,429.607330 393.046661,428.008423 
	C393.312653,426.889496 393.578613,425.770569 393.838043,424.679199 
	C382.166687,417.685028 314.714417,407.435486 299.309265,410.392273 
	C299.194489,411.914124 299.072845,413.526978 298.510376,415.624390 
	C293.728699,417.076569 289.387817,418.044189 285.046997,419.011780 
	C284.919159,416.225159 284.791351,413.438538 284.608704,409.456635 
	C273.637787,410.174774 262.854736,410.880615 251.462601,411.276428 
	C249.695770,410.522736 248.517014,410.126831 247.383789,409.627533 
	C240.914993,406.777679 234.457031,403.903198 227.995392,401.037079 
	C244.953278,399.318085 261.890778,397.326538 278.882202,396.055756 
	C283.623199,395.701172 285.533142,394.490997 285.290100,389.516449 
	C290.046936,390.125519 294.413483,391.056488 298.780060,391.987427 
	C298.798767,394.485657 299.607361,395.818726 302.553711,395.871002 
	C334.306030,396.434174 365.451233,401.159607 395.947296,410.014893 
	C401.343414,411.581787 400.072296,406.744537 402.222839,404.406586 
	C406.559265,405.801422 410.333710,407.420380 414.108124,409.039337 
z"/>
<path fill="#3BA3DB" opacity="1.000000" stroke="none" 
	d="
M404.272156,81.943161 
	C403.411377,81.927452 402.877411,81.722816 402.163330,81.289948 
	C400.540924,77.407265 401.616974,74.367348 405.006317,72.806480 
	C406.573944,72.084526 409.123688,72.382233 410.726898,73.200180 
	C412.025696,73.862816 413.177002,75.974442 413.228180,77.482933 
	C413.258392,78.373116 411.129944,79.576683 409.772278,80.211647 
	C408.159973,80.965691 406.332916,81.260445 404.272156,81.943161 
z"/>
<path fill="#4695D1" opacity="1.000000" stroke="none" 
	d="
M461.040710,146.706360 
	C450.613007,152.147156 440.229828,157.215820 429.459167,161.930206 
	C429.402130,156.773773 428.152466,153.469711 422.354584,153.837753 
	C421.278778,153.906036 420.125183,152.748810 419.007507,152.157196 
	C428.430695,147.801102 437.853882,143.444977 447.634644,139.040680 
	C450.386475,138.928192 452.780518,138.821304 455.175018,138.811081 
	C457.729889,138.800171 460.285187,138.880600 462.840271,138.921173 
	C462.349731,140.904831 461.854553,142.887360 461.372009,144.872971 
	C461.254944,145.354828 461.179688,145.846848 461.040710,146.706360 
z"/>
<path fill="#4B8ACA" opacity="1.000000" stroke="none" 
	d="
M144.961792,144.108276 
	C154.118057,147.460449 162.982193,151.074707 171.905838,154.535431 
	C173.465408,155.140274 175.275467,155.099213 177.540405,155.010590 
	C180.161652,152.362518 182.302139,150.133102 184.241196,147.740448 
	C186.900406,144.459183 189.503815,144.511749 191.643219,148.076019 
	C192.237442,149.065979 192.739380,150.111359 193.283646,151.131317 
	C192.274567,154.127579 191.265472,157.123856 189.924500,160.465668 
	C180.003265,159.340408 170.788223,160.070496 162.362427,165.441803 
	C149.384048,159.479401 136.405670,153.516983 123.210297,147.293793 
	C122.029160,144.445663 121.065033,141.858292 119.689384,138.166565 
	C121.987213,137.909317 124.476372,136.890991 126.331223,137.580078 
	C129.967590,138.931000 133.328934,141.107544 136.654678,143.181961 
	C139.241516,144.795456 141.609467,146.719849 144.961792,144.108276 
z"/>
<path fill="#7D52B3" opacity="1.000000" stroke="none" 
	d="
M170.267548,430.152710 
	C155.776764,436.787201 141.285980,443.421661 126.426636,450.087769 
	C123.116264,447.200348 120.174438,444.281281 116.991798,441.104797 
	C129.603806,434.382965 142.456650,427.918518 155.764465,421.707886 
	C160.902145,424.692017 165.584839,427.422363 170.267548,430.152710 
z"/>
<path fill="#37A5DE" opacity="1.000000" stroke="none" 
	d="
M165.248657,90.604317 
	C164.912552,91.032600 164.260651,91.494202 163.317184,92.013809 
	C163.661377,91.593758 164.297119,91.115700 165.248657,90.604317 
z"/>
<path fill="#7756B5" opacity="1.000000" stroke="none" 
	d="
M170.646332,430.112854 
	C165.584839,427.422363 160.902145,424.692017 156.107330,421.636200 
	C160.948303,419.286041 165.901428,417.261322 171.175247,415.105499 
	C170.669281,413.255493 170.208771,411.571686 170.023605,409.413086 
	C174.151276,407.291168 178.003601,405.644073 181.855927,403.996948 
	C182.708176,406.144196 183.560425,408.291412 184.413223,410.440033 
	C198.767914,407.272186 212.966583,404.138794 227.580322,401.021240 
	C234.457031,403.903198 240.914993,406.777679 247.383789,409.627533 
	C248.517014,410.126831 249.695770,410.522736 251.004486,411.260773 
	C230.639969,414.306183 210.256241,417.696259 189.606537,424.111298 
	C192.474426,430.669708 195.225647,436.961334 197.664322,443.699951 
	C193.570053,445.762604 189.788345,447.378235 186.006622,448.993866 
	C182.795456,442.309509 179.584290,435.625153 176.237579,428.658630 
	C174.460846,429.140747 172.742981,429.606873 170.646332,430.112854 
z"/>
<path fill="#6B61B9" opacity="1.000000" stroke="none" 
	d="
M154.180466,337.423767 
	C158.343307,336.267853 162.472015,335.536285 167.004318,334.871826 
	C169.876160,349.029144 172.344406,363.119324 174.443939,377.653259 
	C170.097839,379.397919 166.120499,380.698822 162.143143,381.999725 
	C159.477539,367.282532 156.811951,352.565308 154.180466,337.423767 
z"/>
<path fill="#715EBB" opacity="1.000000" stroke="none" 
	d="
M162.142578,382.393127 
	C166.120499,380.698822 170.097839,379.397919 174.447113,378.049011 
	C177.153717,386.411713 179.488419,394.822418 181.839508,403.615051 
	C178.003601,405.644073 174.151276,407.291168 169.924210,409.036499 
	C167.080322,400.351990 164.611176,391.569275 162.142578,382.393127 
z"/>
<path fill="#4E85C7" opacity="1.000000" stroke="none" 
	d="
M162.668182,165.645157 
	C170.788223,160.070496 180.003265,159.340408 189.995514,160.820663 
	C213.408585,167.084961 236.737274,171.590836 260.533844,173.454163 
	C267.335205,173.986725 274.165894,174.155075 280.962433,174.733673 
	C284.157288,175.005661 285.217682,173.740814 285.373413,170.374390 
	C290.139557,169.632523 294.433685,169.313446 298.727783,168.994370 
	C298.876526,170.635727 299.025269,172.277084 299.230225,174.538589 
	C320.798157,174.503723 342.040161,171.817719 363.817993,168.358826 
	C367.444366,168.862320 370.451782,169.352585 373.424194,169.192566 
	C378.530487,168.917664 379.483368,170.023453 377.709167,174.617111 
	C377.192291,175.955429 377.214966,177.502136 376.990326,178.953323 
	C360.460541,181.644562 343.974426,184.658920 327.383759,186.899307 
	C318.224213,188.136230 308.889313,188.074966 298.868134,188.642242 
	C298.868134,194.898254 298.868134,200.982529 298.480835,207.411057 
	C293.668579,203.850220 289.362518,206.298965 285.042450,207.999496 
	C285.042450,201.702576 285.042450,195.405655 285.042450,188.448715 
	C250.711502,187.846603 217.515152,183.308334 184.341827,173.099884 
	C181.190140,183.743103 178.158188,193.981979 174.699219,204.492081 
	C170.732834,201.646790 166.706802,200.659958 162.150558,201.993332 
	C165.029617,191.167465 167.908661,180.341614 170.918365,169.024475 
	C168.399902,168.017670 165.686905,166.933090 162.668182,165.645157 
z"/>
<path fill="#567DC4" opacity="1.000000" stroke="none" 
	d="
M161.989044,202.341980 
	C166.706802,200.659958 170.732834,201.646790 174.596725,204.872437 
	C173.070038,214.753479 171.218826,224.525360 169.205688,234.650513 
	C164.655930,236.319641 160.268112,237.635498 155.509674,238.972855 
	C157.368561,226.893112 159.598038,214.791885 161.989044,202.341980 
z"/>
<path fill="#715EBB" opacity="1.000000" stroke="none" 
	d="
M298.845093,391.523560 
	C294.413483,391.056488 290.046936,390.125519 285.366699,389.094971 
	C285.010651,376.306976 284.968231,363.618622 284.997742,350.466614 
	C289.378479,349.655945 293.687286,349.308868 298.373413,348.984344 
	C298.803894,363.024506 298.857025,377.042114 298.845093,391.523560 
z"/>
<path fill="#6866B6" opacity="1.000000" stroke="none" 
	d="
M416.224518,337.400360 
	C420.572388,336.630035 424.809937,336.267578 429.407288,335.949707 
	C427.812012,348.502594 425.856934,361.010864 423.359711,373.790649 
	C418.358887,371.744720 414.178284,373.180511 410.026825,375.009888 
	C412.055939,362.609314 414.085052,350.208771 416.224518,337.400360 
z"/>
<path fill="#6B61B9" opacity="1.000000" stroke="none" 
	d="
M409.853271,375.342163 
	C414.178284,373.180511 418.358887,371.744720 423.231445,374.127747 
	C420.610443,385.618591 417.575623,397.043884 414.324463,408.754272 
	C410.333710,407.420380 406.559265,405.801422 402.421326,404.096313 
	C404.598450,394.564911 407.139069,385.119690 409.853271,375.342163 
z"/>
<path fill="#567DC4" opacity="1.000000" stroke="none" 
	d="
M284.964813,208.462616 
	C289.362518,206.298965 293.668579,203.850220 298.407288,207.873764 
	C298.772003,219.684494 298.822968,231.376785 298.804565,243.533218 
	C294.612732,242.261780 290.543030,240.193436 285.465851,241.979858 
	C285.006226,230.976334 284.946686,219.951035 284.964813,208.462616 
z"/>
<path fill="#4A8CCD" opacity="1.000000" stroke="none" 
	d="
M377.392548,178.958862 
	C377.214966,177.502136 377.192291,175.955429 377.709167,174.617111 
	C379.483368,170.023453 378.530487,168.917664 373.424194,169.192566 
	C370.451782,169.352585 367.444366,168.862320 364.229156,168.378387 
	C372.241730,166.059540 380.491882,164.081116 388.703094,161.952469 
	C390.527740,161.479492 392.215118,160.477158 394.395264,159.265198 
	C397.814667,155.497757 400.508087,151.616119 405.951782,153.000076 
	C406.954254,155.351074 408.484802,155.978760 410.920074,154.887970 
	C413.296570,153.823547 415.819733,153.086609 418.643005,152.181549 
	C420.125183,152.748810 421.278778,153.906036 422.354584,153.837753 
	C428.152466,153.469711 429.402130,156.773773 429.088531,162.038757 
	C423.809509,164.628387 418.513641,166.755188 412.753784,169.068329 
	C413.849274,172.783127 414.943207,176.492554 415.662231,180.551636 
	C410.315918,178.328033 407.229950,183.172394 403.121368,183.993790 
	C398.967407,173.577530 398.974701,173.604691 387.915497,176.572403 
	C384.568939,177.470459 381.169830,178.172562 377.392548,178.958862 
z"/>
<path fill="#4E85C7" opacity="1.000000" stroke="none" 
	d="
M403.129974,184.381927 
	C407.229950,183.172394 410.315918,178.328033 415.680847,180.939758 
	C418.444092,190.162933 420.807922,199.349136 423.189423,208.530762 
	C423.590424,210.076767 424.067688,211.602997 424.554871,213.561890 
	C419.953247,211.776962 416.327087,211.899933 414.962769,217.925003 
	C414.791931,218.679398 413.565155,219.194672 412.496765,219.905701 
	C409.156769,208.250443 406.147675,196.510239 403.129974,184.381927 
z"/>
<path fill="#439ED7" opacity="1.000000" stroke="none" 
	d="
M284.974823,108.462219 
	C286.067383,107.445610 287.422028,107.139183 288.028046,106.295219 
	C291.247314,101.812233 294.529999,102.206062 298.352081,105.918335 
	C298.713196,118.020927 298.759949,130.042969 298.371704,142.499512 
	C294.033600,141.745972 290.104492,140.229813 287.142792,144.796097 
	C286.756226,145.392059 285.776917,145.603531 285.072174,145.993103 
	C285.011932,133.636871 284.951691,121.280609 284.974823,108.462219 
z"/>
<path fill="#439ED7" opacity="1.000000" stroke="none" 
	d="
M213.601532,90.969604 
	C215.523285,90.750107 217.248703,91.025803 218.766205,90.585274 
	C220.760681,90.006287 222.591461,88.863495 225.604538,87.436615 
	C224.236115,92.694923 223.277954,96.376740 222.337250,100.498489 
	C216.765564,109.515862 211.176453,118.093315 205.136658,126.580971 
	C204.297562,125.761742 203.822739,125.064774 203.534515,124.297691 
	C201.349625,118.482697 201.263962,118.544594 196.556854,122.819443 
	C195.019409,124.215698 192.837616,124.902412 190.950516,125.913620 
	C198.404572,114.324463 205.858643,102.735298 213.601532,90.969604 
z"/>
<path fill="#4695D1" opacity="1.000000" stroke="none" 
	d="
M190.683533,126.135452 
	C192.837616,124.902412 195.019409,124.215698 196.556854,122.819443 
	C201.263962,118.544594 201.349625,118.482697 203.534515,124.297691 
	C203.822739,125.064774 204.297562,125.761742 204.872223,126.802322 
	C201.282211,134.947754 197.505951,142.782043 193.506683,150.873840 
	C192.739380,150.111359 192.237442,149.065979 191.643219,148.076019 
	C189.503815,144.511749 186.900406,144.459183 184.241196,147.740448 
	C182.302139,150.133102 180.161652,152.362518 177.764099,154.769562 
	C181.750336,145.368698 186.083450,135.862991 190.683533,126.135452 
z"/>
<path fill="#4B93D0" opacity="1.000000" stroke="none" 
	d="
M284.988586,146.455841 
	C285.776917,145.603531 286.756226,145.392059 287.142792,144.796097 
	C290.104492,140.229813 294.033600,141.745972 298.294495,142.961792 
	C298.724792,151.348328 298.797363,159.707123 298.798859,168.530136 
	C294.433685,169.313446 290.139557,169.632523 285.456512,169.974197 
	C285.013367,162.304047 284.959198,154.611313 284.988586,146.455841 
z"/>
<path fill="#4695D1" opacity="1.000000" stroke="none" 
	d="
M405.912415,152.638428 
	C400.508087,151.616119 397.814667,155.497757 394.497131,158.901108 
	C389.484070,149.226883 384.798676,139.463394 380.283264,129.075806 
	C380.858490,126.914246 381.304749,125.386078 381.656525,123.836464 
	C381.961121,122.494690 382.158447,121.128571 382.403137,119.773209 
	C383.753479,120.479912 385.136017,121.132057 386.446991,121.905479 
	C388.680237,123.222977 390.868530,124.616692 393.075684,125.978394 
	C397.341461,134.744522 401.607239,143.510651 405.912415,152.638428 
z"/>
<path fill="#3F9ED8" opacity="1.000000" stroke="none" 
	d="
M393.007233,125.630981 
	C390.868530,124.616692 388.680237,123.222977 386.446991,121.905479 
	C385.136017,121.132057 383.753479,120.479912 382.403137,119.773209 
	C382.158447,121.128571 381.961121,122.494690 381.656525,123.836464 
	C381.304749,125.386078 380.858490,126.914246 380.226257,128.724838 
	C374.019897,119.991638 368.040558,110.985321 361.952820,101.665817 
	C362.369659,98.577202 362.894867,95.801765 363.420105,93.026329 
	C366.075378,93.969986 368.720734,94.943283 371.393494,95.834496 
	C371.991486,96.033890 372.685425,95.945480 373.737671,95.997688 
	C380.406342,105.765060 386.672577,115.524315 393.007233,125.630981 
z"/>
<path fill="#7D52B3" opacity="1.000000" stroke="none" 
	d="
M284.979279,419.475098 
	C289.387817,418.044189 293.728699,417.076569 298.439392,416.064514 
	C298.839600,428.374390 298.869934,440.728729 298.388000,453.545410 
	C293.606110,453.674835 289.336548,453.341888 285.066956,453.008942 
	C285.015167,441.985443 284.963379,430.961945 284.979279,419.475098 
z"/>
<path fill="#874DB1" opacity="1.000000" stroke="none" 
	d="
M284.996582,453.472198 
	C289.336548,453.341888 293.606110,453.674835 298.316223,454.009949 
	C298.806122,462.035034 298.855499,470.057983 298.835388,478.545654 
	C294.167755,477.735565 289.871918,478.642334 285.402191,480.909668 
	C285.010773,471.982239 284.968475,462.958832 284.996582,453.472198 
z"/>
<path fill="#874DB1" opacity="1.000000" stroke="none" 
	d="
M217.843201,476.802124 
	C215.074615,480.301086 212.195557,483.473724 209.103149,486.921356 
	C204.567108,480.696838 200.244400,474.197388 196.193146,467.305054 
	C200.297195,465.280060 204.129807,463.647919 207.962433,462.015778 
	C211.219193,466.835785 214.475952,471.655792 217.843201,476.802124 
z"/>
<path fill="#8050AF" opacity="1.000000" stroke="none" 
	d="
M207.875153,461.678162 
	C204.129807,463.647919 200.297195,465.280060 196.086823,466.958008 
	C192.520264,461.235687 189.331451,455.467499 186.074631,449.346588 
	C189.788345,447.378235 193.570053,445.762604 197.721008,444.060059 
	C201.322800,449.762299 204.555344,455.551422 207.875153,461.678162 
z"/>
<path fill="#874DB1" opacity="1.000000" stroke="none" 
	d="
M368.554321,495.326447 
	C366.081238,494.697296 363.865051,493.890930 361.683441,492.999847 
	C359.852173,492.251862 358.061249,491.405151 356.105865,490.259521 
	C362.439636,480.740875 368.920013,471.564819 375.898804,462.421814 
	C379.955261,464.645538 383.513306,466.836212 387.071350,469.026855 
	C380.989624,477.722076 374.907928,486.417297 368.554321,495.326447 
z"/>
<path fill="#7D52B3" opacity="1.000000" stroke="none" 
	d="
M387.333130,468.813934 
	C383.513306,466.836212 379.955261,464.645538 376.157227,462.208435 
	C379.083923,456.083893 382.250610,450.205750 385.874847,444.352844 
	C389.834656,446.589355 393.336884,448.800568 396.839142,451.011780 
	C393.757751,456.874878 390.676331,462.737946 387.333130,468.813934 
z"/>
<path fill="#7757B0" opacity="1.000000" stroke="none" 
	d="
M396.946960,450.669617 
	C393.336884,448.800568 389.834656,446.589355 386.118195,444.105316 
	C388.134094,438.737030 390.364227,433.641571 392.820496,428.277283 
	C396.823669,429.607330 400.600677,431.206238 404.716461,432.913025 
	C402.388397,438.789734 399.721588,444.558563 396.946960,450.669617 
z"/>
</svg>